<svg xmlns="http://www.w3.org/2000/svg" xmlns:xlink="http://www.w3.org/1999/xlink" width="215" height="51" viewBox="0 0 215 51">
  <defs>
    <polygon id="logo-a" points="0 51 215 51 215 0 0 0"/>
  </defs>
  <g fill="none" fill-rule="evenodd">
    <path fill="#FEFEFE" d="M60,12.6574359 L60,9.01819775 L46.2522549,9.01819775 L46.2522549,22.4270819 C46.1781979,20.85617 45.6085288,19.6376275 44.5302264,18.779649 C43.7831459,18.1871768 42.6633391,17.7143463 41.1683644,17.360338 L37.7593012,16.5498884 C36.4433654,16.2401311 35.5823511,15.9705276 35.177886,15.7410777 C34.8059734,15.5370313 34.5439256,15.2707056 34.3917425,14.9429201 L34.3909287,14.944559 C34.3901149,14.9421007 34.3893011,14.9396423 34.3884873,14.9371839 C34.2875744,14.7142898 34.2289799,14.4520614 34.2289799,14.1734437 C34.2289799,13.5735963 34.4324332,13.0630704 34.855616,12.6623527 L34.855616,12.6615332 C34.8653817,12.6525191 34.8743337,12.6443245 34.8840994,12.6353104 L34.8849133,12.6344909 C34.9768741,12.5500862 35.0794146,12.4697787 35.190907,12.396027 C35.8313779,11.9707254 36.6866955,11.7584843 37.7593012,11.7584843 C38.7228559,11.7584843 39.5293447,11.9231965 40.1787676,12.249343 C41.1504605,12.7451185 41.6737423,13.581791 41.7453579,14.7577213 L45.6475918,14.7577213 C45.57679,12.6779225 44.8085505,11.0922603 43.3453145,9.99991523 C41.8820785,8.90757015 40.1136626,8.36098788 38.0408805,8.36098788 C35.5595643,8.36098788 33.6772146,8.9403487 32.3962727,10.0990703 C31.6085016,10.8120037 31.0640607,11.6372037 30.7605084,12.5738506 L30.7588807,12.5738506 C30.6937757,12.7762582 30.6392502,12.9852214 30.5961181,13.196643 C30.1216651,15.453446 28.6779606,16.9866625 26.2658185,16.9866625 C22.4034614,16.9866625 20.9524326,13.6768487 20.9524326,10.3948967 C20.9524326,6.9482325 22.4034614,3.64005765 26.2658185,3.64005765 C28.4004503,3.64005765 30.2632685,5.12902314 30.5375236,7.0859024 L34.7001777,7.0859024 C34.1801511,2.53624007 30.5651932,0 26.2658185,0 C20.493442,0 16.9907903,4.13911102 16.6790999,9.59264178 L16.6790999,0.467913759 L12.3780976,0.467913759 L12.3780976,12.7115205 C12.3780976,15.6345475 11.3917561,16.9866625 8.32449442,16.9866625 C4.84707095,16.9866625 4.29937472,14.8626127 4.29937472,12.7115205 L4.29937472,0.467913759 L0,0.467913759 L0,12.7115205 C0,18.0617989 3.06726165,20.6267202 8.32449442,20.6267202 C13.556499,20.6267202 16.6790999,18.0347566 16.6790999,12.7115205 L16.6790999,11.1766651 C16.9907903,16.4884286 20.493442,20.6267202 26.2658185,20.6267202 C28.6372699,20.6267202 30.6595955,19.8564243 32.151315,18.4830032 C32.2440897,18.5583939 32.338492,18.6313261 32.438591,18.7009805 C33.2117135,19.2401876 34.6326312,19.7408799 36.6997165,20.1997796 L38.8034234,20.6644155 C40.0355365,20.9307412 40.9348,21.2364011 41.5012139,21.5813953 C42.0676279,21.9345842 42.3524625,22.4352765 42.3524625,23.0810139 C42.3524625,24.1864704 41.7730275,24.9436548 40.6157853,25.3501088 C40.0054254,25.5631693 39.2111438,25.6696996 38.2329404,25.6696996 C36.6004313,25.6696996 35.4464443,25.267343 34.7742347,24.4609907 C34.4063911,24.0184803 34.1598058,23.3506174 34.0344785,22.4565826 L30.1582867,22.4565826 C30.1582867,24.4929498 30.8907185,26.0925429 32.3563959,27.2545424 C33.8220733,28.4190003 35.8346332,29 38.3924478,29 C40.8965508,29 42.8358675,28.4108056 44.2079564,27.229139 C45.4701805,26.1417107 46.1505283,24.7986097 46.2522549,23.1990166 L46.2522549,28.7074515 L50.5516297,28.7074515 L50.5516297,20.5718161 L58.7394035,20.5718161 L58.7394035,17.2070983 L50.5516297,17.2070983 L50.5516297,12.6574359 L60,12.6574359 Z"/>
    <polygon fill="#FEFEFE" points="89 29 86.099 29 86.099 15.558 69.901 15.558 69.901 29 67 29 67 1 69.901 1 69.901 13.043 86.099 13.043 86.099 1 89 1"/>
    <path fill="#FEFEFE" d="M101.110511 30C95.4057609 30 92 25.8886829 92 19.0004162 92 16.0752961 92.762568 13.3974044 94.1450248 11.4578683 95.7588315 9.19618601 98.1674501 8 101.110511 8 103.571526 8 105.597249 8.83158651 107.13367 10.4739491 109.074752 12.5483371 110.11623 15.9046502 109.989672 19.6813349L109.985642 19.8103598 94.6899465 19.8103598C94.7979636 25.2052669 97.9812417 27.6226115 101.110511 27.6226115 104.276861 27.6226115 106.39206 25.8404026 107.228789 22.4691059L107.254585 22.3683832 109.946143 22.3683832 109.909063 22.5323697C108.786169 27.5568504 105.908402 30 101.110511 30M94.7036502 17.4329714L107.297308 17.4329714C107.136894 13.9035151 104.980584 10.3773885 101.110511 10.3773885 97.2404383 10.3773885 95.1155659 13.8960233 94.7036502 17.4329714M119.912892 30C115.648589 30 113 27.6459193 113 23.8559159 113 18.3636157 117.794676 17.8192137 122.869704 17.2431798 123.237769 17.2015589 123.606653 17.1599379 123.973898 17.1158197 125.927345 16.8869045 127.032358 16.6504976 127.032358 14.4629006 127.032358 11.6751296 125.392873 10.3773885 121.872897 10.3773885 119.942402 10.3773885 116.689663 10.9808922 116.595392 15.0231185L116.592113 15.1529759 113.855812 15.1529759 113.862369 15.0131295C114.0837 10.489765 117.039693 8 122.186038 8 127.215161 8 129.766201 10.2683416 129.766201 14.7417609L129.766201 25.6472814C129.766201 26.5612774 130.209682 27.0257671 131.084347 27.0257671 131.337648 27.0257671 131.636034 26.950017 131.818837 26.8759317L132 26.8026789 132 29.2183586 131.895073 29.2408339C131.33109 29.3631995 130.933515 29.4031556 130.260506 29.4031556 127.85456 29.4031556 127.279921 28.1120739 127.232376 26.0052215 125.543705 28.5391048 123.753387 30 119.912892 30zM127.032358 18.3394756C126.570843 18.8156192 125.626499 18.9862651 125.031366 19.0919823 124.341962 19.2168451 123.61485 19.3208975 122.911511 19.4216202 119.219389 19.9510386 115.733023 20.45049 115.733023 23.6969238 115.733023 26.246623 117.987316 27.6226115 120.10881 27.6226115 122.18112 27.6226115 124.102597 26.8709372 125.381396 25.5598774 126.477392 24.4352794 127.048753 22.96606 127.032358 21.3103788L127.032358 18.3394756z"/>
    <mask id="logo-b" fill="#fff">
      <use xlink:href="#logo-a"/>
    </mask>
    <polygon fill="#FEFEFE" points="133 29 136 29 136 1 133 1" mask="url(#logo-b)"/>
    <path fill="#FEFEFE" d="M145.75715 29C144.070469 29 143.02133 28.6853455 142.354558 27.9817086 141.674356 27.2615545 141.379681 26.1210351 141.398641 24.2843116L141.398641 10.4791546 138 10.4791546 138 8.12131037 141.398641 8.12131037 141.398641 2 144.032549 2 144.032549 8.12131037 148 8.12131037 148 10.4791546 144.032549 10.4791546 144.032549 24.0885817C144.032549 25.7659132 144.294043 26.5331417 145.840891 26.6421558 146.501343 26.6413299 147.183125 26.6016884 147.858587 26.5232313L148 26.506714 148 28.9198911 147.872808 28.9198911C147.517301 28.9198911 147.163375 28.9405377 146.822089 28.9595326 146.476063 28.9801792 146.119766 29 145.75715 29M168 29L165.379446 29 165.379446 16.3592943C165.379446 12.313911 163.855374 10.4297487 160.582433 10.4297487 157.093339 10.4297487 154.697583 13.1410249 154.620554 17.1774708L154.620554 29 152 29 152 1 154.620554 1 154.620554 11.8174801C155.626646 9.61400963 158.08764 8.10927979 160.770289 8.10927979 165.770092 8.10927979 168 10.5329348 168 15.9709245L168 29zM68.0970722 49.9441795L71.8707629 49.9441795C73.5000412 49.9617765 74.9029278 49.3433673 74.9029278 47.2677582 74.9029278 45.6102875 73.790268 44.7555756 71.8707629 44.7555756L68.0970722 44.7555756 68.0970722 49.9441795zM68.0970722 43.6989171L71.8707629 43.6989171C73.6291959 43.6989171 74.4679588 42.7159985 74.4679588 41.4959392 74.4679588 39.8753384 73.5809485 39.0558205 71.8707629 39.0558205L68.0970722 39.0558205 68.0970722 43.6989171zM67 38L71.8707629 38C73.8065979 38 75.5650309 38.764213 75.5650309 41.1867346 75.5650309 42.5517597 74.7581856 43.8086889 73.5646186 44.0994586L73.5646186 44.1354905C75.0484124 44.3541962 76 45.6102875 76 47.3046281 76 48.5422844 75.6125361 51 71.8707629 51L67 51 67 38zM79 41.1371878L79.9095831 41.1371878 79.9095831 43.4507087 79.9413463 43.4507087C80.4430608 41.8637917 81.5410576 40.9278273 83 41.0043582L83 42.207741C81.2118751 42.0933844 79.9882693 43.6987744 79.9882693 45.7439972L79.9882693 51 79 51 79 41.1371878zM90.7409012 45.5603979L90.7036395 45.5603979C90.5528596 45.8352019 90.02513 45.9270842 89.7053726 45.9818764 87.6906412 46.3291747 85.1863085 46.3114726 85.1863085 48.1609205 85.1863085 49.3149288 86.2409012 50.0297564 87.3518198 50.0297564 89.1594454 50.0297564 90.7599653 48.9128382 90.7409012 47.0617045L90.7409012 45.5603979zM84.4142114 44.1686757C84.5277296 41.9525415 86.127383 41 88.3500867 41 90.0632582 41 91.9272097 41.5125179 91.9272097 44.0397033L91.9272097 49.0586698C91.9272097 49.4986934 92.152513 49.7549524 92.6239168 49.7549524 92.7556326 49.7549524 92.9064125 49.7187052 93 49.6816151L93 50.6518587C92.7365685 50.7066509 92.5485269 50.725196 92.2279029 50.725196 91.0233969 50.725196 90.8353553 50.0660035 90.8353553 49.0772149L90.797227 49.0772149C89.9688042 50.3045604 89.1213172 51 87.2573657 51 85.4688042 51 84 50.1393408 84 48.2342578 84 45.5781 86.6551127 45.4870606 89.2157712 45.1937115 90.194974 45.0841271 90.7409012 44.9559976 90.7409012 43.9115738 90.7409012 42.354632 89.5918544 41.9702436 88.1993068 41.9702436 86.7305026 41.9702436 85.6386482 42.6294361 85.6005199 44.1686757L84.4142114 44.1686757zM94 51L95 51 95 41.604873 94 41.604873 94 51zM94 39.8384685L95 39.8384685 95 38 94 38 94 39.8384685zM97 41.2817023L98.2029877 41.2817023 98.2029877 42.9589148 98.241652 42.9589148C98.6801406 41.7905001 99.9982425 41 101.391916 41 104.15993 41 105 42.4310479 105 44.7470746L105 51 103.797012 51 103.797012 44.9360319C103.797012 43.2596862 103.243409 41.9976597 101.296134 41.9976597 99.3866432 41.9976597 98.241652 43.4295744 98.2029877 45.331282L98.2029877 51 97 51 97 41.2817023z" mask="url(#logo-b)"/>
    <polygon fill="#FEFEFE" points="110 38 120 38 120 39.056 115.601 39.056 115.601 51 114.399 51 114.399 39.056 110 39.056" mask="url(#logo-b)"/>
    <path fill="#FEFEFE" d="M129 50.7174554L127.892794 50.7174554 127.892794 48.965852 127.855009 48.965852C127.224077 50.265904 125.926186 51 124.456063 51 121.973638 51 121 49.5690761 121 47.308719L121 41 122.203866 41 122.203866 47.3277864C122.260105 49.0793898 122.928822 50.0024268 124.838313 50.0024268 126.899824 50.0024268 127.797891 48.0809499 127.797891 46.1040042L127.797891 41 129 41 129 50.7174554zM131 41.2817023L132.05732 41.2817023 132.05732 42.9207766 132.111864 42.9207766C132.714369 41.7532287 133.698683 41 135.194036 41 136.43345 41 137.546153 41.6214787 137.89188 42.9017075 138.457462 41.6214787 139.642332 41 140.882585 41 142.94268 41 144 42.1103406 144 44.408165L144 51 142.851214 51 142.851214 44.4653723C142.851214 42.8635694 142.268009 41.9976597 140.627485 41.9976597 138.639556 41.9976597 138.074813 43.6922077 138.074813 45.5003034L138.074813 51 136.926026 51 136.926026 44.408165C136.944487 43.089798 136.414988 41.9976597 134.956558 41.9976597 132.969468 41.9976597 132.167248 43.5413886 132.148786 45.5757129L132.148786 51 131 51 131 41.2817023zM145.161181 46C145.161181 48.0144976 146.268037 50.0289953 148.499576 50.0289953 150.731963 50.0289953 151.83797 48.0144976 151.83797 46 151.83797 43.9846595 150.731963 41.9710047 148.499576 41.9710047 146.268037 41.9710047 145.161181 43.9846595 145.161181 46M153 46C153 48.7107215 151.413562 51 148.499576 51 145.585589 51 144 48.7107215 144 46 144 43.2892785 145.585589 41 148.499576 41 151.413562 41 153 43.2892785 153 46M155 41.1371878L155.910305 41.1371878 155.910305 43.4507087 155.941346 43.4507087C156.443061 41.8637917 157.541779 40.9278273 159 41.0043582L159 42.207741C157.211153 42.0933844 155.988269 43.6987744 155.988269 45.7439972L155.988269 51 155 51 155 41.1371878zM174.647358 42.0368675C174.231344 40.1141284 172.651931 39.0140418 170.847343 39.0140418 167.568743 39.0140418 166.180168 41.7747124 166.180168 44.5 166.180168 47.2260918 167.568743 49.9875665 170.847343 49.9875665 173.137413 49.9875665 174.595456 48.2047507 174.82063 45.9852777L176 45.9852777C175.670224 49.0434863 173.744265 51 170.847343 51 166.943525 51 165 47.9080168 165 44.5 165 41.0927873 166.943525 38 170.847343 38 173.189315 38 175.514518 39.4153161 175.826728 42.0368675L174.647358 42.0368675zM183.900906 45.3403861C183.848906 43.6005226 182.82249 41.9702436 181.050462 41.9702436 179.259235 41.9702436 178.26882 43.6182247 178.094417 45.3403861L183.900906 45.3403861zM178.094417 46.3106297C178.112817 47.9957009 178.94723 50.0297564 181.050462 50.0297564 182.649687 50.0297564 183.5177 49.0401248 183.865706 47.6113125L184.960923 47.6113125C184.491315 49.7541094 183.309697 51 181.050462 51 178.199218 51 177 48.6928264 177 45.9995785 177 43.5086403 178.199218 41 181.050462 41 183.935307 41 185.083325 43.6553148 184.995323 46.3106297L178.094417 46.3106297zM187 41.2817023L188.202988 41.2817023 188.202988 42.9589148 188.240773 42.9589148C188.680141 41.7905001 189.997364 41 191.391037 41 194.15993 41 195 42.4310479 195 44.7470746L195 51 193.797012 51 193.797012 44.9360319C193.797012 43.2596862 193.243409 41.9976597 191.296134 41.9976597 189.386643 41.9976597 188.240773 43.4295744 188.202988 45.331282L188.202988 51 187 51 187 41.2817023zM197.372168 41.7467029L199 41.7467029 199 42.6864718 197.372168 42.6864718 197.372168 48.8553365C197.372168 49.5813732 197.464942 50.007206 198.16289 50.0602311 198.441927 50.0602311 198.721677 50.0422842 199 50.007206L199 50.9641061C198.705263 50.9641061 198.42694 51 198.13149 51 196.829081 51 196.379483 50.5031951 196.395183 48.9434398L196.395183 42.6864718 195 42.6864718 195 41.7467029 196.395183 41.7467029 196.395183 39 197.372168 39 197.372168 41.7467029zM207.900397 45.3403861C207.848406 43.6005226 206.822185 41.9702436 205.050494 41.9702436 203.259606 41.9702436 202.269379 43.6182247 202.095009 45.3403861L207.900397 45.3403861zM202.095009 46.3106297C202.112606 47.9957009 202.94686 50.0297564 205.050494 50.0297564 206.649415 50.0297564 207.517263 49.0401248 207.865203 47.6113125L208.960212 47.6113125C208.490694 49.7541094 207.3093 51 205.050494 51 202.199791 51 201 48.6928264 201 45.9995785 201 43.5086403 202.199791 41 205.050494 41 207.934791 41 209.08259 43.6553148 208.995406 46.3106297L202.095009 46.3106297zM211 41.1371878L211.910305 41.1371878 211.910305 43.4507087 211.941346 43.4507087C212.443061 41.8637917 213.541779 40.9278273 215 41.0043582L215 42.207741C213.211153 42.0933844 211.988269 43.6987744 211.988269 45.7439972L211.988269 51 211 51 211 41.1371878z" mask="url(#logo-b)"/>
  </g>
</svg>
