<?xml version="1.0" encoding="utf-8"?>
<!-- Generator: Adobe Illustrator 15.0.2, SVG Export Plug-In . SVG Version: 6.00 Build 0)  -->
<!DOCTYPE svg PUBLIC "-//W3C//DTD SVG 1.1//EN" "http://www.w3.org/Graphics/SVG/1.1/DTD/svg11.dtd">
<svg version="1.1" id="Слой_1" xmlns="http://www.w3.org/2000/svg" xmlns:xlink="http://www.w3.org/1999/xlink" x="0px" y="0px"
	 width="56.5px" height="56.5px" viewBox="0 -24.5 56.5 56.5" enable-background="new 0 -24.5 56.5 56.5" xml:space="preserve">
<path id="Close" d="M30.595,4.577l17.664-17.568c0.846-0.837,0.846-2.195,0-3.03c-0.844-0.839-2.218-0.839-3.063,0
	L27.548,1.53L9.736-16.283c-0.845-0.847-2.217-0.847-3.062,0c-0.844,0.849-0.844,2.222,0,3.069L24.474,4.587L6.61,22.352
	c-0.845,0.837-0.845,2.196,0,3.031c0.845,0.838,2.217,0.838,3.062,0L27.52,7.633l17.741,17.744c0.844,0.848,2.217,0.848,3.062,0
	c0.844-0.849,0.844-2.222,0-3.069L30.595,4.577z"/>
</svg>
