<?xml version="1.0" encoding="utf-8"?>
<!-- Generator: Adobe Illustrator 15.0.2, SVG Export Plug-In . SVG Version: 6.00 Build 0)  -->
<!DOCTYPE svg PUBLIC "-//W3C//DTD SVG 1.1//EN" "http://www.w3.org/Graphics/SVG/1.1/DTD/svg11.dtd">
<svg version="1.1" id="Layer_1" xmlns="http://www.w3.org/2000/svg" xmlns:xlink="http://www.w3.org/1999/xlink" x="0px" y="0px"
	 width="127.493px" height="90.062px" viewBox="408.115 1417.564 127.493 90.062"
	 enable-background="new 408.115 1417.564 127.493 90.062" xml:space="preserve">
<path fill="#EB093C" d="M498.693,1454.242v25.408c0,1.408-0.502,2.614-1.504,3.615c-1.003,1.004-2.208,1.505-3.617,1.505h-47.104
	c-1.408,0-2.614-0.501-3.616-1.505c-1.003-1.001-1.504-2.207-1.504-3.615v-25.408c0.938,1.046,2.016,1.974,3.232,2.785
	c7.723,5.248,13.024,8.928,15.904,11.039c1.216,0.896,2.202,1.595,2.96,2.097c0.757,0.501,1.765,1.013,3.024,1.536
	c1.259,0.521,2.432,0.784,3.52,0.784h0.064c1.087,0,2.261-0.263,3.52-0.784c1.259-0.523,2.267-1.035,3.024-1.536
	c0.757-0.502,1.744-1.2,2.96-2.097c3.626-2.624,8.938-6.304,15.936-11.039C496.709,1456.194,497.776,1455.266,498.693,1454.242z
	 M498.693,1442.433c0,1.686-0.523,3.295-1.568,4.831c-1.045,1.537-2.347,2.849-3.904,3.938c-8.022,5.567-13.013,9.034-14.976,10.4
	c-0.214,0.148-0.667,0.473-1.36,0.975c-0.694,0.502-1.27,0.906-1.728,1.216s-1.013,0.656-1.664,1.04
	c-0.651,0.385-1.264,0.672-1.84,0.864s-1.109,0.288-1.6,0.288h-0.064c-0.491,0-1.024-0.096-1.6-0.288
	c-0.576-0.192-1.189-0.479-1.84-0.864c-0.65-0.384-1.205-0.73-1.664-1.04c-0.459-0.31-1.035-0.714-1.728-1.216
	s-1.147-0.826-1.36-0.975c-1.941-1.366-4.736-3.312-8.384-5.841s-5.835-4.049-6.56-4.56c-1.323-0.896-2.571-2.128-3.744-3.697
	c-1.174-1.566-1.76-3.023-1.76-4.367c0-1.664,0.443-3.051,1.328-4.16s2.149-1.664,3.792-1.664h47.104c1.387,0,2.587,0.501,3.6,1.504
	C498.186,1439.818,498.693,1441.024,498.693,1442.433z"/>
</svg>
