<?xml version="1.0" encoding="utf-8"?>
<!-- Generator: Adobe Illustrator 15.0.2, SVG Export Plug-In . SVG Version: 6.00 Build 0)  -->
<!DOCTYPE svg PUBLIC "-//W3C//DTD SVG 1.1//EN" "http://www.w3.org/Graphics/SVG/1.1/DTD/svg11.dtd">
<svg version="1.1" id="Layer_1" xmlns:sketch="http://www.bohemiancoding.com/sketch/ns"
	 xmlns="http://www.w3.org/2000/svg" xmlns:xlink="http://www.w3.org/1999/xlink" x="0px" y="0px" width="50px" height="50px"
	 viewBox="0 0 50 50" enable-background="new 0 0 50 50" xml:space="preserve">
<g>
	<path fill="#FFFFFF" d="M26.82,19.31c0-0.989,0.101-1.519,1.622-1.519h2.034V14h-3.254c-3.91,0-5.286,1.839-5.286,4.932v2.276H19.5
		v3.791h2.437V36h4.877V24.999h3.254l0.432-3.791h-3.686L26.82,19.31z"/>
	<path fill="#FFFFFF" d="M25,0C11.193,0,0,11.193,0,25c0,13.807,11.193,25,25,25c13.807,0,25-11.193,25-25C50,11.193,38.807,0,25,0z
		 M25,47C12.85,47,3,37.15,3,25S12.85,3,25,3s22,9.85,22,22S37.15,47,25,47z"/>
</g>
</svg>
