<?xml version="1.0" encoding="utf-8"?>
<!-- Generator: Adobe Illustrator 15.0.2, SVG Export Plug-In . SVG Version: 6.00 Build 0)  -->
<!DOCTYPE svg PUBLIC "-//W3C//DTD SVG 1.1//EN" "http://www.w3.org/Graphics/SVG/1.1/DTD/svg11.dtd">
<svg version="1.1" id="Layer_1" xmlns:sketch="http://www.bohemiancoding.com/sketch/ns"
	 xmlns="http://www.w3.org/2000/svg" xmlns:xlink="http://www.w3.org/1999/xlink" x="0px" y="0px" width="114.667px"
	 height="118.667px" viewBox="-48.833 -46.167 114.667 118.667" enable-background="new -48.833 -46.167 114.667 118.667"
	 xml:space="preserve">
<g>
	<path d="M-1.519-9.352c-2.283,0-4.105,1.82-4.105,4.065v37.673c0,2.213,1.838,4.068,4.105,4.068
		c2.283,0,4.105-1.819,4.105-4.068V-5.287C2.586-7.5,0.748-9.352-1.519-9.352z"/>
	<path d="M19.005-9.352c-2.285,0-4.104,1.82-4.104,4.065v37.673c0,2.213,1.836,4.068,4.104,4.068
		c2.285,0,4.105-1.819,4.105-4.068V-5.287C23.11-7.5,21.274-9.352,19.005-9.352z"/>
</g>
<g>
	<path d="M8.743-40.449c-29.823,0-54,24.178-54,54c0,29.824,24.177,54,54,54c29.823,0,54-24.175,54-54
		C62.743-16.271,38.566-40.449,8.743-40.449z M8.743,60.775c-26.082,0-47.225-21.144-47.225-47.225s21.143-47.225,47.225-47.225
		c26.081,0,47.225,21.144,47.225,47.225S34.824,60.775,8.743,60.775z"/>
</g>
</svg>
