<svg xmlns="http://www.w3.org/2000/svg" width="30" height="29" viewBox="0 0 30 29">
  <g fill="#006BE9" fill-rule="evenodd">
    <path d="M27.3148527,20.9996852 C27.3148527,23.9722396 24.8513591,26.4043295 21.8404224,26.4043295 L8.15969927,26.4043295 C5.14876258,26.4043295 2.68526892,23.9722396 2.68526892,20.9996852 L2.68526892,8.00031475 C2.68526892,5.02776041 5.14876258,2.59567049 8.15969927,2.59567049 L21.8404224,2.59579059 C24.8513591,2.59579059 27.3148527,5.02788051 27.3148527,8.00043486 L27.3148527,20.9996852 Z M22.0924895,0 L7.90751051,0 C3.55837973,0 0,3.51301877 0,7.80670839 L0,21.1932916 C0,25.4869812 3.55837973,29 7.90751051,29 L22.0924895,29 C26.4416203,29 30,25.4869812 30,21.1932916 L30,7.80670839 C30,3.51301877 26.4416203,0 22.0924895,0 Z"/>
    <path d="M15.9999355 20.3388092C13.1493318 20.3388092 10.8386035 18.1725014 10.8386035 15.5000605 10.8387326 12.8274986 13.1493318 10.6613118 16.0000645 10.6611908 18.8506682 10.6611908 21.1613965 12.8274986 21.1613965 15.4999395 21.1613965 18.1723804 18.8506682 20.3386882 15.9999355 20.3388092M15.9999355 8C11.5815773 8 8 11.3577287 8 15.4999395 8 19.6421503 11.5817063 23 16.0000645 23 20.4184227 23 24 19.6422713 24 15.5000605 24 11.3578497 20.4182937 8 15.9999355 8M24 6.5C24 7.32842857 23.3284286 8 22.5 8 21.6715714 8 21 7.32842857 21 6.5 21 5.67157143 21.6715714 5 22.5 5 23.3284286 5 24 5.67157143 24 6.5"/>
  </g>
</svg>
