<svg xmlns="http://www.w3.org/2000/svg" width="50" height="50" viewBox="0 0 50 50">
  <g fill="#FFF" fill-rule="evenodd">
    <path fill-rule="nonzero" d="M25,0 C11.193,0 0,11.193 0,25 C0,38.807 11.193,50 25,50 C38.807,50 50,38.807 50,25 C50,11.193 38.807,0 25,0 Z M25,47 C12.85,47 3,37.15 3,25 C3,12.85 12.85,3 25,3 C37.15,3 47,12.85 47,25 C47,37.15 37.15,47 25,47 Z"/>
    <path d="M37.3148527,31.9996852 C37.3148527,34.9722396 34.8513591,37.4043295 31.8404224,37.4043295 L18.1596993,37.4043295 C15.1487626,37.4043295 12.6852689,34.9722396 12.6852689,31.9996852 L12.6852689,19.0003148 C12.6852689,16.0277604 15.1487626,13.5956705 18.1596993,13.5956705 L31.8404224,13.5957906 C34.8513591,13.5957906 37.3148527,16.0278805 37.3148527,19.0004349 L37.3148527,31.9996852 Z M32.0924895,11 L17.9075105,11 C13.5583797,11 10,14.5130188 10,18.8067084 L10,32.1932916 C10,36.4869812 13.5583797,40 17.9075105,40 L32.0924895,40 C36.4416203,40 40,36.4869812 40,32.1932916 L40,18.8067084 C40,14.5130188 36.4416203,11 32.0924895,11 Z"/>
    <path d="M25.9999355 31.3388092C23.1493318 31.3388092 20.8386035 29.1725014 20.8386035 26.5000605 20.8387326 23.8274986 23.1493318 21.6613118 26.0000645 21.6611908 28.8506682 21.6611908 31.1613965 23.8274986 31.1613965 26.4999395 31.1613965 29.1723804 28.8506682 31.3386882 25.9999355 31.3388092M25.9999355 19C21.5815773 19 18 22.3577287 18 26.4999395 18 30.6421503 21.5817063 34 26.0000645 34 30.4184227 34 34 30.6422713 34 26.5000605 34 22.3578497 30.4182937 19 25.9999355 19M34 17.5C34 18.3284286 33.3284286 19 32.5 19 31.6715714 19 31 18.3284286 31 17.5 31 16.6715714 31.6715714 16 32.5 16 33.3284286 16 34 16.6715714 34 17.5"/>
  </g>
</svg>
