<svg xmlns="http://www.w3.org/2000/svg" width="52" height="52" viewBox="0 0 52 52">
  <g id="Instagram" transform="translate(0 0.087)">
    <circle id="Ellipse_368" data-name="Ellipse 368" cx="26" cy="26" r="26" transform="translate(0 -0.087)" fill="#fff"/>
    <path id="Path_570" data-name="Path 570" d="M21.423,16.7a6.023,6.023,0,1,0,6.023,6.023A6.035,6.035,0,0,0,21.423,16.7Zm0,9.882a3.859,3.859,0,1,1,3.859-3.859A3.876,3.876,0,0,1,21.423,26.582Z" transform="translate(5.077 3.635)" fill="#052049"/>
    <circle id="Ellipse_365" data-name="Ellipse 365" cx="1.878" cy="1.878" r="1.878" transform="translate(31.072 18.132)" fill="#052049"/>
    <path id="Path_571" data-name="Path 571" d="M26.384,6.867A7.178,7.178,0,0,0,21.092,4.8H10.708A6.9,6.9,0,0,0,3.4,12.108V22.441a7.252,7.252,0,0,0,2.117,5.393A7.356,7.356,0,0,0,10.759,29.8H21.041a7.442,7.442,0,0,0,5.292-1.966A7.216,7.216,0,0,0,28.4,22.492V12.108A7.225,7.225,0,0,0,26.384,6.867Zm-.2,15.625a4.925,4.925,0,0,1-1.462,3.679,5.21,5.21,0,0,1-3.679,1.31H10.759a5.21,5.21,0,0,1-3.679-1.31,5.066,5.066,0,0,1-1.361-3.73V12.108A5.025,5.025,0,0,1,7.079,8.429a5.126,5.126,0,0,1,3.679-1.31H21.142a5.025,5.025,0,0,1,3.679,1.361,5.2,5.2,0,0,1,1.361,3.629V22.492Z" transform="translate(10.6 9.113)" fill="#052049"/>
  </g>
</svg>
