<?xml version="1.0" encoding="utf-8"?>
<!-- Generator: Adobe Illustrator 15.0.2, SVG Export Plug-In . SVG Version: 6.00 Build 0)  -->
<!DOCTYPE svg PUBLIC "-//W3C//DTD SVG 1.1//EN" "http://www.w3.org/Graphics/SVG/1.1/DTD/svg11.dtd">
<svg version="1.1" id="Layer_1" xmlns:sketch="http://www.bohemiancoding.com/sketch/ns"
	 xmlns="http://www.w3.org/2000/svg" xmlns:xlink="http://www.w3.org/1999/xlink" x="0px" y="0px" width="33.915px"
	 height="34.239px" viewBox="12.456 11.482 33.915 34.239" enable-background="new 12.456 11.482 33.915 34.239"
	 xml:space="preserve">
<path fill="#EB093C" d="M21.883,43.823V25.524h-5.656v18.299H21.883z M21.883,19.038c-0.034-1.637-1.125-2.884-2.898-2.884
	c-1.773,0-2.932,1.247-2.932,2.884c0,1.602,1.125,2.885,2.864,2.885h0.034C20.758,21.923,21.883,20.64,21.883,19.038z
	 M31.109,43.823V33.397c0-0.558,0.041-1.116,0.205-1.514c0.449-1.116,1.47-2.27,3.184-2.27c2.246,0,3.654,1.275,3.654,3.784v10.426
	h5.693V33.118c0-5.734-3.061-8.402-7.144-8.402c-3.349,0-4.817,1.872-5.634,3.146l0.041-2.447h-5.684c0.082,1.751,0,18.409,0,18.409
	H31.109z"/>
</svg>
