<?xml version="1.0" encoding="utf-8"?>
<!-- Generator: Adobe Illustrator 15.0.2, SVG Export Plug-In . SVG Version: 6.00 Build 0)  -->
<!DOCTYPE svg PUBLIC "-//W3C//DTD SVG 1.1//EN" "http://www.w3.org/Graphics/SVG/1.1/DTD/svg11.dtd">
<svg version="1.1" id="Слой_1" xmlns="http://www.w3.org/2000/svg" xmlns:xlink="http://www.w3.org/1999/xlink" x="0px" y="0px"
	 width="372px" height="490px" viewBox="110.14 178.445 372 490" enable-background="new 110.14 178.445 372 490"
	 xml:space="preserve">
<path d="M443.568,318.754l-0.001,0.002c-16.826-64.884-75.779-112.797-145.927-112.797
	c-71.725,0-131.746,50.095-146.996,117.204c-1.913,6.917-5.093,21.727-4.635,42.579c-0.842,27.34,8.874,116.853,142.209,270.188
	c0,0,5.567,5.566,9.422,5.566s9.421-5.566,9.421-5.566c120.94-139.082,140.177-225.653,142.079-260.95
	C451.617,339.879,443.568,318.754,443.568,318.754z M297.64,445.784c-49.196,0-89.078-39.882-89.078-89.078
	s39.882-89.078,89.078-89.078c49.196,0,89.078,39.881,89.078,89.078S346.836,445.784,297.64,445.784z"/>
</svg>
