<?xml version="1.0" encoding="utf-8"?>
<!-- Generator: Adobe Illustrator 15.0.2, SVG Export Plug-In . SVG Version: 6.00 Build 0)  -->
<!DOCTYPE svg PUBLIC "-//W3C//DTD SVG 1.1//EN" "http://www.w3.org/Graphics/SVG/1.1/DTD/svg11.dtd">
<svg version="1.1" id="Layer_1" xmlns="http://www.w3.org/2000/svg" xmlns:xlink="http://www.w3.org/1999/xlink" x="0px" y="0px"
	 width="172.75px" height="182.5px" viewBox="-25.75 -3.25 172.75 182.5" enable-background="new -25.75 -3.25 172.75 182.5"
	 xml:space="preserve">
<path fill="#006BE9" d="M128.083,33.594l-29-33.121l-0.379-0.379H98.47H10.083c-5.522,0-10,4.477-10,10v150c0,5.523,4.478,10,10,10
	h108c5.521,0,10-4.477,10-10V33.594z"/>
<g>
	<path fill="#006BE9" d="M95.875,1.89c-1.874,0.054-1.843,2.002-1.843,2.002v28.996c0,0-0.406,4.526,5.529,4.526h23.856
		c0,0,1.854-0.022,2.312-0.809c0.75-1.292-0.307-2.564-0.307-2.564L98.054,2.807C98.054,2.807,97.18,1.853,95.875,1.89z"/>
</g>
<path fill="#FFFFFF" stroke="#006BE9" stroke-width="5" stroke-miterlimit="10" d="M140.697,119.391c0,4.971-4.029,9-9,9H-7.848
	c-4.971,0-9-4.029-9-9V69.938c0-4.971,4.029-9,9-9h139.545c4.971,0,9,4.029,9,9V119.391L140.697,119.391z"/>
<g>
	<path fill="#006BE9" d="M17.748,70.62H-4.729v49.838H6.23V102.59h11.518c12.424,0,17.24-7.889,17.24-15.984
		C34.988,78.508,30.172,70.62,17.748,70.62z M14.746,94.073H6.23V79.136h8.516c5.096,0,9.632,1.117,9.632,7.469
		C24.378,92.957,19.842,94.073,14.746,94.073z"/>
	<path fill="#006BE9" d="M63.321,70.62H41.822v49.838h21.499c15.217,0,22.615-10.749,22.615-25.198
		C85.938,78.718,76.234,70.62,63.321,70.62z M62.553,111.245h-9.771V79.834H60.6c10.888,0,14.38,6.421,14.38,16.473
		C74.979,107.336,68.904,111.245,62.553,111.245z"/>
	<polygon fill="#006BE9" points="93.54,120.458 104.497,120.458 104.497,99.868 125.369,99.868 125.369,91.352 104.497,91.352
		104.497,79.834 128.579,79.834 128.579,70.62 93.54,70.62 	"/>
</g>
</svg>
