<?xml version="1.0" encoding="utf-8"?>
<!-- Generator: Adobe Illustrator 15.0.2, SVG Export Plug-In . SVG Version: 6.00 Build 0)  -->
<!DOCTYPE svg PUBLIC "-//W3C//DTD SVG 1.1//EN" "http://www.w3.org/Graphics/SVG/1.1/DTD/svg11.dtd">
<svg version="1.1" id="Layer_1" xmlns:sketch="http://www.bohemiancoding.com/sketch/ns"
	 xmlns="http://www.w3.org/2000/svg" xmlns:xlink="http://www.w3.org/1999/xlink" x="0px" y="0px" width="31.634px"
	 height="28.47px" viewBox="0 -10.47 31.634 28.47" enable-background="new 0 -10.47 31.634 28.47" xml:space="preserve">
<path id="Shape" fill="#EB093C" d="M26.917-2.583H4.75C2.058-2.583,0-0.525,0,2.167v9.5h6.333V18h19v-6.333h6.334v-9.5
	C31.667-0.525,29.608-2.583,26.917-2.583L26.917-2.583z M22.167,14.833H9.5V6.917h12.667V14.833L22.167,14.833z M26.917,3.75
	c-0.95,0-1.584-0.633-1.584-1.583s0.634-1.583,1.584-1.583c0.949,0,1.583,0.633,1.583,1.583S27.866,3.75,26.917,3.75L26.917,3.75z
	 M25.333-10.5h-19v6.333h19V-10.5L25.333-10.5z"/>
</svg>
