<?xml version="1.0" encoding="utf-8"?>
<!-- Generator: Adobe Illustrator 15.0.2, SVG Export Plug-In . SVG Version: 6.00 Build 0)  -->
<!DOCTYPE svg PUBLIC "-//W3C//DTD SVG 1.1//EN" "http://www.w3.org/Graphics/SVG/1.1/DTD/svg11.dtd">
<svg version="1.1" id="Layer_1" xmlns:sketch="http://www.bohemiancoding.com/sketch/ns"
	 xmlns="http://www.w3.org/2000/svg" xmlns:xlink="http://www.w3.org/1999/xlink" x="0px" y="0px" width="50px" height="50px"
	 viewBox="0 0 50 50" enable-background="new 0 0 50 50" xml:space="preserve">
<g>
	<path fill="#FFFFFF" d="M25,0C11.193,0,0,11.193,0,25c0,13.807,11.193,25,25,25c13.807,0,25-11.193,25-25C50,11.193,38.807,0,25,0z
		 M25,47C12.85,47,3,37.15,3,25S12.85,3,25,3s22,9.85,22,22S37.15,47,25,47z"/>
	<path fill="#FFFFFF" d="M35.254,18.022c-1.352,0.503-1.543,0.436-0.875-0.319c0.492-0.537,1.081-1.509,1.081-1.794
		c0-0.05-0.238,0.034-0.509,0.185c-0.286,0.167-0.922,0.419-1.398,0.57l-0.859,0.285l-0.778-0.553
		c-0.429-0.302-1.033-0.637-1.351-0.738c-0.812-0.235-2.051-0.202-2.782,0.067c-1.987,0.755-3.243,2.7-3.1,4.83l0.048,0.822
		l-0.795-0.101c-2.893-0.386-5.42-1.694-7.566-3.891l-1.049-1.09l-0.27,0.805c-0.572,1.794-0.207,3.689,0.985,4.964
		c0.636,0.705,0.493,0.805-0.604,0.386c-0.381-0.134-0.715-0.234-0.747-0.184c-0.111,0.117,0.27,1.644,0.572,2.247
		c0.413,0.839,1.256,1.661,2.178,2.147l0.779,0.386l-0.922,0.017c-0.89,0-0.922,0.017-0.827,0.369
		c0.318,1.09,1.574,2.247,2.973,2.751l0.985,0.352l-0.858,0.537c-1.271,0.771-2.766,1.207-4.26,1.24
		C14.588,32.328,14,32.395,14,32.445c0,0.168,1.939,1.107,3.068,1.477c3.386,1.09,7.408,0.619,10.428-1.242
		c2.146-1.324,4.292-3.957,5.293-6.507c0.541-1.358,1.081-3.841,1.081-5.032c0-0.771,0.048-0.872,0.938-1.794
		c0.523-0.537,1.018-1.124,1.112-1.292C36.08,17.737,36.064,17.737,35.254,18.022z"/>
</g>
</svg>
