<svg xmlns="http://www.w3.org/2000/svg" width="52" height="52" viewBox="0 0 52 52">
  <g id="YouTube" transform="translate(0 0.087)">
    <g id="Ellipse_368" data-name="Ellipse 368" transform="translate(0 -0.087)" fill="none" stroke="#fff" stroke-width="3">
      <circle cx="26" cy="26" r="26" stroke="none"/>
      <circle cx="26" cy="26" r="24.5" fill="none"/>
    </g>
    <g id="_104482_youtube_icon_2_" data-name="104482_youtube_icon (2)" transform="translate(10.244 8.553)">
      <path id="Path_592" data-name="Path 592" d="M24.713,28.21H8.492a4.67,4.67,0,0,0-4.669,4.67v3.753A4.67,4.67,0,0,0,8.492,41.3H24.713a4.67,4.67,0,0,0,4.669-4.67V32.88A4.671,4.671,0,0,0,24.713,28.21ZM11.9,31.131H10.392v7.494H8.935V31.131H7.428V29.857H11.9v1.275Zm4.26,7.494H14.868v-.709a2.765,2.765,0,0,1-.746.6,1.558,1.558,0,0,1-.751.206.8.8,0,0,1-.676-.289,1.4,1.4,0,0,1-.227-.867V32.156H13.76v4.963a.553.553,0,0,0,.08.331.317.317,0,0,0,.266.1.735.735,0,0,0,.36-.135,1.746,1.746,0,0,0,.4-.348V32.155H16.16Zm4.692-1.336a1.612,1.612,0,0,1-.3,1.053,1.074,1.074,0,0,1-.879.365,1.54,1.54,0,0,1-.677-.141,1.662,1.662,0,0,1-.553-.438v.5H17.131V29.857h1.308v2.824a2.017,2.017,0,0,1,.553-.449,1.269,1.269,0,0,1,.6-.154,1.117,1.117,0,0,1,.936.412,1.927,1.927,0,0,1,.325,1.209v3.59Zm4.483-1.743H22.862v1.219a1.41,1.41,0,0,0,.126.708.482.482,0,0,0,.439.2.535.535,0,0,0,.45-.167A1.4,1.4,0,0,0,24,36.765v-.294h1.33V36.8a2.074,2.074,0,0,1-.488,1.5,1.927,1.927,0,0,1-1.45.5,1.782,1.782,0,0,1-1.369-.532,2.065,2.065,0,0,1-.5-1.467V33.9a1.825,1.825,0,0,1,.551-1.372A1.95,1.95,0,0,1,23.494,32a1.814,1.814,0,0,1,1.365.49,1.944,1.944,0,0,1,.476,1.41Z" transform="translate(0 -10.943)" fill="#fff"/>
      <path id="Path_593" data-name="Path 593" d="M40.935,37.646a.513.513,0,0,0-.443.179.942.942,0,0,0-.134.579v.654H41.5V38.4a.946.946,0,0,0-.137-.579A.5.5,0,0,0,40.935,37.646Z" transform="translate(-17.496 -15.461)" fill="#fff"/>
      <path id="Path_594" data-name="Path 594" d="M32.412,37.6a.637.637,0,0,0-.274.063.926.926,0,0,0-.267.2v4.03a1.1,1.1,0,0,0,.306.23.76.76,0,0,0,.313.069.42.42,0,0,0,.349-.139.71.71,0,0,0,.111-.445V38.269a.773.773,0,0,0-.135-.5A.5.5,0,0,0,32.412,37.6Z" transform="translate(-13.432 -15.441)" fill="#fff"/>
      <path id="Path_595" data-name="Path 595" d="M15.065,15.02H16.7V11.013L18.611,5.36H16.945L15.931,9.221h-.1L14.763,5.36h-1.65l1.952,5.833Z" transform="translate(-4.449)" fill="#fff"/>
      <path id="Path_596" data-name="Path 596" d="M25.991,17.364a2.218,2.218,0,0,0,1.559-.521,1.857,1.857,0,0,0,.564-1.434V11.728a1.715,1.715,0,0,0-.575-1.334,2.146,2.146,0,0,0-1.482-.516,2.39,2.39,0,0,0-1.581.49,1.629,1.629,0,0,0-.587,1.319v3.694a1.887,1.887,0,0,0,.573,1.445A2.148,2.148,0,0,0,25.991,17.364Zm-.6-5.731a.485.485,0,0,1,.165-.378.645.645,0,0,1,.435-.142.72.72,0,0,1,.467.142.467.467,0,0,1,.177.378v3.883a.585.585,0,0,1-.175.45.656.656,0,0,1-.469.163.584.584,0,0,1-.445-.162.626.626,0,0,1-.155-.452V11.633Z" transform="translate(-9.609 -2.164)" fill="#fff"/>
      <path id="Path_597" data-name="Path 597" d="M35.281,17.454a1.831,1.831,0,0,0,.844-.228,3.086,3.086,0,0,0,.838-.665v.789h1.455V10.224H36.963v5.409a2.014,2.014,0,0,1-.448.383.844.844,0,0,1-.407.15.35.35,0,0,1-.3-.115.582.582,0,0,1-.094-.364V10.224H34.265V16.18a1.5,1.5,0,0,0,.254.953A.917.917,0,0,0,35.281,17.454Z" transform="translate(-14.578 -2.329)" fill="#fff"/>
    </g>
  </g>
</svg>
