<svg xmlns="http://www.w3.org/2000/svg" width="27" height="26" viewBox="0 0 27 26">
  <g fill="none" fill-rule="evenodd" transform="translate(1)">
    <path fill="#EB093C" d="M22.8534119,5.12352941 L18.2936635,0.0579647059 L18.2340723,0 L18.1972799,0 L4.29995283,0 C3.43171384,0 2.72762579,0.684717647 2.72762579,1.52941176 L2.72762579,24.4705882 C2.72762579,25.3152824 3.43171384,26 4.29995283,26 L21.2810849,26 C22.1491667,26 22.8534119,25.3152824 22.8534119,24.4705882 L22.8534119,5.12352941 Z"/>
    <path fill="#FFF" d="M17.8965881,0 L17.5124686,0 L17.5124686,4.85955294 C17.5124686,4.85955294 17.4443868,5.56904706 18.4402987,5.56904706 L22.8533491,5.56904706 L22.8533491,5.50725882 L17.8965881,0 Z"/>
    <polygon fill="#FFF" points="22.853 5.507 22.853 5.571 22.909 5.571"/>
    <path fill="#FFF" d="M24.849827,18.2597388 C24.849827,19.0200094 24.2163365,19.6362094 23.4347327,19.6362094 L1.49369497,19.6362094 C0.712091195,19.6362094 0.0786006289,19.0200094 0.0786006289,18.2597388 L0.0786006289,10.6963388 C0.0786006289,9.93622118 0.712091195,9.31986824 1.49369497,9.31986824 L23.4347327,9.31986824 C24.2163365,9.31986824 24.849827,9.93622118 24.849827,10.6963388 L24.849827,18.2597388 Z"/>
    <path stroke="#EB093C" stroke-width=".784" d="M24.849827,18.2597388 C24.849827,19.0200094 24.2163365,19.6362094 23.4347327,19.6362094 L1.49369497,19.6362094 C0.712091195,19.6362094 0.0786006289,19.0200094 0.0786006289,18.2597388 L0.0786006289,10.6963388 C0.0786006289,9.93622118 0.712091195,9.31986824 1.49369497,9.31986824 L23.4347327,9.31986824 C24.2163365,9.31986824 24.849827,9.93622118 24.849827,10.6963388 L24.849827,18.2597388 Z"/>
    <path fill="#EB093C" d="M5.04619497 14.3876659L3.70720126 14.3876659 3.70720126 12.1031835 5.04619497 12.1031835C5.84745283 12.1031835 6.56066038 12.2740188 6.56066038 13.2455012 6.56066038 14.2169835 5.84745283 14.3876659 5.04619497 14.3876659M5.51820755 10.8007365L1.98393082 10.8007365 1.98393082 18.4230188 3.70720126 18.4230188 3.70720126 15.6902659 5.51820755 15.6902659C7.47166667 15.6902659 8.22889937 14.4837129 8.22889937 13.2455012 8.22889937 12.0071365 7.47166667 10.8007365 5.51820755 10.8007365M12.562956 17.0139565L11.0266352 17.0139565 11.0266352 12.2099212 12.2558805 12.2099212C13.9679874 12.2099212 14.5168868 13.1921094 14.5168868 14.7293212 14.5168868 16.4161094 13.5616981 17.0139565 12.562956 17.0139565M12.6838679 10.8007212L9.30352201 10.8007212 9.30352201 18.4230035 12.6838679 18.4230035C15.0763208 18.4230035 16.2396855 16.7790388 16.2396855 14.5691918 16.2396855 12.0392388 14.7142138 10.8007212 12.6838679 10.8007212"/>
    <polygon fill="#EB093C" points="17.435 18.423 19.158 18.423 19.158 15.274 22.44 15.274 22.44 13.971 19.158 13.971 19.158 12.21 22.944 12.21 22.944 10.801 17.435 10.801"/>
  </g>
</svg>
