<?xml version="1.0" encoding="utf-8"?>
<!-- Generator: Adobe Illustrator 15.0.2, SVG Export Plug-In . SVG Version: 6.00 Build 0)  -->
<!DOCTYPE svg PUBLIC "-//W3C//DTD SVG 1.1//EN" "http://www.w3.org/Graphics/SVG/1.1/DTD/svg11.dtd">
<svg version="1.1" id="Layer_1" xmlns="http://www.w3.org/2000/svg" xmlns:xlink="http://www.w3.org/1999/xlink" x="0px" y="0px"
	 width="48px" height="48px" viewBox="0 0 48 48" enable-background="new 0 0 48 48" xml:space="preserve">
<g>
	<defs>
		<polygon id="SVGID_1_" points="32.957,32.59 39.4,38.915 41.666,36.689 35.031,30.365 34.018,31.573 		"/>
	</defs>
	<clipPath id="SVGID_2_">
		<use xlink:href="#SVGID_1_"  overflow="visible"/>
	</clipPath>
	<rect x="27.957" y="25.365" clip-path="url(#SVGID_2_)" fill="#007CBE" width="18.709" height="18.55"/>
</g>
<g>
	<defs>
		<path id="SVGID_3_" d="M15.138,29.939c0.097-0.58,0.833-1.264,3.961-2.385c3.079-1.102,2.89-0.565,2.89-2.593
			c0-1.315-0.688-0.551-1.126-3.049c-0.171-0.983-0.307-0.328-0.677-1.904c-0.195-0.826,0.131-0.888,0.092-1.282
			s-0.078-0.745-0.15-1.553c-0.088-0.997,0.862-3.624,4.268-3.624c3.406,0,4.357,2.626,4.264,3.628
			c-0.072,0.803-0.111,1.158-0.15,1.553c-0.039,0.394,0.287,0.456,0.093,1.282c-0.37,1.571-0.507,0.916-0.677,1.904
			c-0.439,2.498-1.126,1.733-1.126,3.049c0,2.032-0.19,1.496,2.89,2.593c3.129,1.116,3.869,1.805,3.951,2.322
			c0.037,0.205,0.061,0.472,0.076,0.74c-2.184,2.46-5.406,4.019-9.006,4.019C20.786,34.641,17.307,32.791,15.138,29.939z"/>
	</defs>
	<clipPath id="SVGID_4_">
		<use xlink:href="#SVGID_3_"  overflow="visible"/>
	</clipPath>
	<rect x="10.138" y="8.55" clip-path="url(#SVGID_4_)" fill="#007CBE" width="28.579" height="31.09"/>
</g>
<g>
	<defs>
		<path id="SVGID_5_" d="M24.426,9.085c7.535,0,13.645,5.998,13.645,13.395c0,7.398-6.109,13.396-13.645,13.396
			c-7.534,0-13.643-5.997-13.643-13.396C10.783,15.083,16.892,9.085,24.426,9.085 M24.426,34.194c6.59,0,11.932-5.245,11.932-11.715
			c0-6.469-5.342-11.714-11.932-11.714c-6.589,0-11.931,5.245-11.931,11.714C12.495,28.949,17.837,34.194,24.426,34.194"/>
	</defs>
	<clipPath id="SVGID_6_">
		<use xlink:href="#SVGID_5_"  overflow="visible"/>
	</clipPath>
	<rect x="5.783" y="4.085" clip-path="url(#SVGID_6_)" fill="#007CBE" width="37.287" height="36.79"/>
	<path clip-path="url(#SVGID_6_)" fill="none" stroke="#052049" stroke-width="0.72" stroke-miterlimit="10" d="M24.426,9.085
		c7.535,0,13.645,5.998,13.645,13.395c0,7.398-6.109,13.396-13.645,13.396c-7.534,0-13.643-5.997-13.643-13.396
		C10.783,15.083,16.892,9.085,24.426,9.085z M24.426,34.194c6.59,0,11.932-5.245,11.932-11.715c0-6.469-5.342-11.714-11.932-11.714
		c-6.589,0-11.931,5.245-11.931,11.714C12.495,28.949,17.837,34.194,24.426,34.194z"/>
</g>
</svg>
