<svg xmlns="http://www.w3.org/2000/svg" width="127.493" height="90.062" viewBox="408.115 1417.564 127.493 90.062"><path fill="#EB093C" d="M498.693 1454.242v25.408c0 1.408-.502 2.614-1.504 3.615-1.003 1.004-2.208 1.505-3.617 1.505h-47.104c-1.408 0-2.614-.501-3.616-1.505-1.003-1.001-1.504-2.207-1.504-3.615v-25.408a16.943 16.943 0 0 0 3.232 2.785c7.723 5.248 13.024 8.928 15.904 11.039a76.126 76.126 0 0 0 2.96 2.097c.757.501 1.765 1.013 3.024 1.536 1.259.521 2.432.784 3.52.784h.064c1.087 0 2.261-.263 3.52-.784 1.259-.523 2.267-1.035 3.024-1.536.757-.502 1.744-1.2 2.96-2.097 3.626-2.624 8.938-6.304 15.936-11.039a17.656 17.656 0 0 0 3.201-2.785zm0-11.809c0 1.686-.523 3.295-1.568 4.831a15.222 15.222 0 0 1-3.904 3.938c-8.022 5.567-13.013 9.034-14.976 10.4-.214.148-.667.473-1.36.975-.694.502-1.27.906-1.728 1.216s-1.013.656-1.664 1.04c-.651.385-1.264.672-1.84.864s-1.109.288-1.6.288h-.064c-.491 0-1.024-.096-1.6-.288a9.641 9.641 0 0 1-1.84-.864c-.65-.384-1.205-.73-1.664-1.04-.459-.31-1.035-.714-1.728-1.216s-1.147-.826-1.36-.975c-1.941-1.366-4.736-3.312-8.384-5.841s-5.835-4.049-6.56-4.56c-1.323-.896-2.571-2.128-3.744-3.697-1.174-1.566-1.76-3.023-1.76-4.367 0-1.664.443-3.051 1.328-4.16s2.149-1.664 3.792-1.664h47.104c1.387 0 2.587.501 3.6 1.504 1.013 1.001 1.52 2.207 1.52 3.616z"/></svg>