<svg xmlns="http://www.w3.org/2000/svg" width="114.667" height="118.667" viewBox="-48.833 -46.167 114.667 118.667"><path d="M-1.519-9.352c-2.283 0-4.105 1.82-4.105 4.065v37.673c0 2.213 1.838 4.068 4.105 4.068 2.283 0 4.105-1.819 4.105-4.068V-5.287c0-2.213-1.838-4.065-4.105-4.065zM19.005-9.352c-2.285 0-4.104 1.82-4.104 4.065v37.673c0 2.213 1.836 4.068 4.104 4.068 2.285 0 4.105-1.819 4.105-4.068V-5.287c0-2.213-1.836-4.065-4.105-4.065z"/><g><path d="M8.743-40.449c-29.823 0-54 24.178-54 54 0 29.824 24.177 54 54 54s54-24.175 54-54c0-29.822-24.177-54-54-54zm0 101.224c-26.082 0-47.225-21.144-47.225-47.225s21.143-47.225 47.225-47.225c26.081 0 47.225 21.144 47.225 47.225S34.824 60.775 8.743 60.775z"/></g></svg>