<svg xmlns="http://www.w3.org/2000/svg" width="50" height="50" viewBox="0 0 50 50"><g fill="#FFF" fill-rule="evenodd"><path fill-rule="nonzero" d="M25 0C11.193 0 0 11.193 0 25s11.193 25 25 25 25-11.193 25-25S38.807 0 25 0zm0 47C12.85 47 3 37.15 3 25S12.85 3 25 3s22 9.85 22 22-9.85 22-22 22z"/><path d="M37.315 32c0 2.972-2.464 5.404-5.475 5.404H18.16c-3.011 0-5.475-2.432-5.475-5.404V19c0-2.972 2.464-5.404 5.475-5.404h13.68c3.011 0 5.475 2.432 5.475 5.404v13zm-5.223-21H17.908C13.558 11 10 14.513 10 18.807v13.386C10 36.487 13.558 40 17.908 40h14.184C36.442 40 40 36.487 40 32.193V18.807C40 14.513 36.442 11 32.092 11z"/><path d="M26 31.339c-2.85 0-5.161-2.166-5.161-4.839 0-2.673 2.31-4.839 5.161-4.839 2.85 0 5.161 2.166 5.161 4.839 0 2.672-2.31 4.839-5.161 4.839M26 19c-4.418 0-8 3.358-8 7.5 0 4.142 3.582 7.5 8 7.5s8-3.358 8-7.5c0-4.142-3.582-7.5-8-7.5m8-1.5a1.5 1.5 0 1 1-3 0 1.5 1.5 0 0 1 3 0"/></g></svg>