<svg xmlns="http://www.w3.org/2000/svg" width="30" height="29"><g fill="#006BE9" fill-rule="evenodd"><path d="M27.315 21c0 2.972-2.464 5.404-5.475 5.404H8.16c-3.011 0-5.475-2.432-5.475-5.404V8c0-2.972 2.464-5.404 5.475-5.404h13.68c3.011 0 5.475 2.432 5.475 5.404v13ZM22.092 0H7.908C3.558 0 0 3.513 0 7.807v13.386C0 25.487 3.558 29 7.908 29h14.184C26.442 29 30 25.487 30 21.193V7.807C30 3.513 26.442 0 22.092 0Z"/><path d="M16 20.339c-2.85 0-5.161-2.166-5.161-4.839 0-2.673 2.31-4.839 5.161-4.839 2.85 0 5.161 2.166 5.161 4.839 0 2.672-2.31 4.839-5.161 4.839M16 8c-4.418 0-8 3.358-8 7.5 0 4.142 3.582 7.5 8 7.5s8-3.358 8-7.5c0-4.142-3.582-7.5-8-7.5m8-1.5a1.5 1.5 0 1 1-3 0 1.5 1.5 0 0 1 3 0"/></g></svg>