<svg xmlns="http://www.w3.org/2000/svg" width="52" height="52"><g transform="translate(0 .087)"><circle data-name="Ellipse 368" cx="26" cy="26" r="26" transform="translate(0 -.087)" fill="#fff"/><path data-name="Path 570" d="M26.5 20.335a6.023 6.023 0 1 0 6.023 6.023 6.035 6.035 0 0 0-6.023-6.023Zm0 9.882a3.859 3.859 0 1 1 3.859-3.859 3.876 3.876 0 0 1-3.859 3.859Z" fill="#052049"/><circle data-name="Ellipse 365" cx="1.878" cy="1.878" r="1.878" transform="translate(31.072 18.132)" fill="#052049"/><path data-name="Path 571" d="M36.984 15.98a7.178 7.178 0 0 0-5.292-2.067H21.308A6.9 6.9 0 0 0 14 21.221v10.333a7.252 7.252 0 0 0 2.117 5.393 7.356 7.356 0 0 0 5.242 1.966h10.282a7.442 7.442 0 0 0 5.292-1.966A7.216 7.216 0 0 0 39 31.605V21.221a7.225 7.225 0 0 0-2.016-5.241Zm-.2 15.625a4.925 4.925 0 0 1-1.462 3.679 5.21 5.21 0 0 1-3.679 1.31H21.359a5.21 5.21 0 0 1-3.679-1.31 5.066 5.066 0 0 1-1.361-3.73V21.221a5.025 5.025 0 0 1 1.36-3.679 5.126 5.126 0 0 1 3.679-1.31h10.384a5.025 5.025 0 0 1 3.679 1.361 5.2 5.2 0 0 1 1.361 3.629v10.383Z" fill="#052049"/></g></svg>