<svg xmlns="http://www.w3.org/2000/svg" width="33.915" height="34.239" viewBox="12.456 11.482 33.915 34.239" xml:space="preserve"><path fill="#006BE9" d="M21.883 43.823V25.524h-5.656v18.299h5.656zm0-24.785c-.034-1.637-1.125-2.884-2.898-2.884-1.773 0-2.932 1.247-2.932 2.884 0 1.602 1.125 2.885 2.864 2.885h.034c1.807 0 2.932-1.283 2.932-2.885zm9.226 24.785V33.397c0-.558.041-1.116.205-1.514.449-1.116 1.47-2.27 3.184-2.27 2.246 0 3.654 1.275 3.654 3.784v10.426h5.693V33.118c0-5.734-3.061-8.402-7.144-8.402-3.349 0-4.817 1.872-5.634 3.146l.041-2.447h-5.684c.082 1.751 0 18.409 0 18.409h5.685z"/></svg>