<svg xmlns="http://www.w3.org/2000/svg" width="372" height="490" viewBox="110.14 178.445 372 490" xml:space="preserve"><path d="m443.568 318.754-.001.002c-16.826-64.884-75.779-112.797-145.927-112.797-71.725 0-131.746 50.095-146.996 117.204-1.913 6.917-5.093 21.727-4.635 42.579-.842 27.34 8.874 116.853 142.209 270.188 0 0 5.567 5.566 9.422 5.566s9.421-5.566 9.421-5.566c120.94-139.082 140.177-225.653 142.079-260.95 2.477-35.101-5.572-56.226-5.572-56.226zM297.64 445.784c-49.196 0-89.078-39.882-89.078-89.078s39.882-89.078 89.078-89.078c49.196 0 89.078 39.881 89.078 89.078s-39.882 89.078-89.078 89.078z"/></svg>