<svg xmlns="http://www.w3.org/2000/svg" width="431.978" height="115.495" viewBox="0 0 431.978 115.495"><path d="M218.242 36.942h11.41c4.534 0 8.652 1.587 8.652 6.612 0 2.833-1.889 5.44-4.685 6.045v.076c3.476.453 5.705 3.06 5.705 6.574 0 2.569-.907 7.669-9.672 7.669h-11.41V36.942zm2.569 11.826h8.841c4.118 0 6.083-2.041 6.083-4.572 0-3.362-2.078-5.062-6.083-5.062h-8.841v9.634zm0 12.959h8.841c3.816.038 7.103-1.247 7.103-5.554 0-3.438-2.607-5.214-7.103-5.214h-8.841v10.768zm23.122-17.304h2.19v4.572h.076c1.209-3.136 3.854-4.987 7.367-4.836v2.38c-4.307-.227-7.254 2.947-7.254 6.989v10.39h-2.38V44.423zm12.618 5.97c.227-4.572 3.438-6.536 7.896-6.536 3.438 0 7.178 1.058 7.178 6.271V60.48c0 .907.453 1.436 1.398 1.436.264 0 .566-.076.756-.151v2.002c-.529.114-.907.151-1.549.151-2.418 0-2.797-1.36-2.797-3.4h-.075c-1.662 2.531-3.362 3.967-7.103 3.967-3.59 0-6.536-1.776-6.536-5.705 0-5.478 5.327-5.667 10.466-6.271 1.964-.227 3.06-.491 3.06-2.645 0-3.211-2.305-4.004-5.101-4.004-2.947 0-5.138 1.36-5.213 4.534h-2.38zm12.695 2.871h-.075c-.303.567-1.36.756-2.002.869-4.043.718-9.068.68-9.068 4.496 0 2.38 2.116 3.854 4.346 3.854 3.627 0 6.838-2.305 6.8-6.121v-3.098zm8.123-16.322h2.38v3.816h-2.38v-3.816zm0 7.481h2.38v19.495h-2.38V44.423zm7.859 0h2.38v3.363h.075c.869-2.342 3.476-3.929 6.234-3.929 5.478 0 7.141 2.871 7.141 7.519v12.543h-2.381V51.752c0-3.362-1.096-5.894-4.949-5.894-3.778 0-6.045 2.871-6.12 6.687v11.372h-2.38V44.423zm30.262-7.481h21.384v2.191h-9.408v24.784h-2.568V39.134h-9.407v-2.192zm36.722 26.976h-2.191v-3.514h-.076c-1.246 2.607-3.815 4.081-6.725 4.081-4.911 0-6.838-2.872-6.838-7.405V44.423h2.38v12.694c.113 3.514 1.436 5.365 5.214 5.365 4.08 0 5.855-3.854 5.855-7.821V44.423h2.381v19.495zm5.441-19.495h2.191v3.287h.113c1.247-2.342 3.287-3.854 6.385-3.854 2.569 0 4.874 1.247 5.592 3.816 1.171-2.569 3.627-3.816 6.196-3.816 4.27 0 6.46 2.229 6.46 6.838v13.223h-2.38v-13.11c0-3.211-1.209-4.949-4.609-4.949-4.118 0-5.289 3.4-5.289 7.027v11.032h-2.38V50.695c.037-2.645-1.059-4.836-4.081-4.836-4.118 0-5.78 3.098-5.817 7.178v10.881h-2.381V44.423zm49.871 9.747c0 5.592-3.249 10.314-9.219 10.314-5.969 0-9.219-4.723-9.219-10.314s3.25-10.314 9.219-10.314c5.97 0 9.219 4.723 9.219 10.314zm-16.057 0c0 4.156 2.267 8.312 6.838 8.312s6.839-4.156 6.839-8.312-2.268-8.312-6.839-8.312-6.838 4.157-6.838 8.312zm20.552-9.747h2.191v4.572h.075c1.209-3.136 3.854-4.987 7.368-4.836v2.38c-4.308-.227-7.254 2.947-7.254 6.989v10.39h-2.381V44.423zm-174.055 40.98c-.907-4.156-4.345-6.535-8.274-6.535-7.141 0-10.163 5.969-10.163 11.863 0 5.893 3.022 11.861 10.163 11.861 4.987 0 8.161-3.854 8.651-8.65h2.569c-.718 6.611-4.912 10.842-11.221 10.842-8.501 0-12.732-6.686-12.732-14.053 0-7.369 4.231-14.055 12.732-14.055 5.1 0 10.163 3.059 10.843 8.727h-2.568zm8.765 9.709c.037 3.477 1.852 7.67 6.422 7.67 3.477 0 5.365-2.039 6.121-4.986h2.38c-1.021 4.42-3.589 6.988-8.501 6.988-6.195 0-8.802-4.76-8.802-10.312 0-5.139 2.607-10.314 8.802-10.314 6.271 0 8.766 5.479 8.576 10.955h-14.998zm12.619-2.002c-.114-3.588-2.344-6.951-6.197-6.951-3.891 0-6.045 3.4-6.422 6.951h12.619zm6.498-8.387h2.381v3.361h.075c.868-2.342 3.476-3.928 6.233-3.928 5.479 0 7.141 2.871 7.141 7.518v12.543h-2.38V92.053c0-3.363-1.096-5.895-4.949-5.895-3.778 0-6.045 2.871-6.12 6.688v11.371h-2.381V84.723zm25.049 0h3.967v2.002h-3.967v13.148c0 1.549.227 2.455 1.927 2.568.68 0 1.36-.037 2.04-.113v2.041c-.718 0-1.397.074-2.115.074-3.174 0-4.27-1.057-4.231-4.383V86.725h-3.4v-2.002h3.4v-5.855h2.38v5.855zm9.747 10.389c.037 3.477 1.851 7.67 6.423 7.67 3.476 0 5.364-2.039 6.12-4.986h2.38c-1.02 4.42-3.589 6.988-8.5 6.988-6.196 0-8.804-4.76-8.804-10.312 0-5.139 2.607-10.314 8.804-10.314 6.271 0 8.765 5.479 8.576 10.955h-14.999zm12.618-2.002c-.113-3.588-2.342-6.951-6.195-6.951-3.892 0-6.045 3.4-6.423 6.951h12.618zm6.536-8.387h2.191v4.57h.075c1.209-3.135 3.854-4.986 7.368-4.836v2.381c-4.308-.227-7.254 2.947-7.254 6.99v10.389h-2.381V84.723zM191.407 48.514V37.807h-40.728v39.452c-.219-4.622-1.907-8.208-5.103-10.73-2.21-1.744-5.528-3.137-9.955-4.179l-10.102-2.382c-3.898-.911-6.447-1.705-7.648-2.382-1.103-.6-1.876-1.382-2.328-2.344l-.001.002-.009-.021a5.429 5.429 0 0 1-.472-2.25c0-1.764.605-3.264 1.858-4.443v-.003c.027-.027.056-.051.083-.076a7.394 7.394 0 0 1 .908-.706c1.895-1.25 4.431-1.875 7.607-1.875 2.855 0 5.244.482 7.166 1.445 2.882 1.458 4.43 3.919 4.644 7.381h11.56c-.211-6.118-2.484-10.784-6.82-14-4.336-3.215-9.574-4.823-15.714-4.823-7.353 0-12.927 1.705-16.723 5.116-2.333 2.097-3.946 4.525-4.845 7.281h-.005c-.193.593-.354 1.21-.482 1.834h-.001c-1.407 6.639-5.682 11.147-12.829 11.147-11.443 0-15.741-9.735-15.741-19.391 0-10.14 4.298-19.873 15.741-19.873 6.325 0 11.844 4.379 12.654 10.138h12.333c-1.542-13.385-12.251-20.85-24.987-20.85-17.1 0-27.476 12.178-28.402 28.221V12.655H50.329v36.021c0 8.599-2.92 12.574-12.006 12.574-10.304 0-11.926-6.247-11.926-12.574V12.655H13.659v36.021c0 15.739 9.084 23.284 24.663 23.284 15.498 0 24.746-7.625 24.746-23.284V44.16c.926 15.624 11.302 27.8 28.402 27.8 7.026 0 13.018-2.266 17.436-6.304.274.221.555.435.852.638 2.291 1.588 6.499 3.059 12.624 4.413l6.232 1.367c3.647.781 6.312 1.68 7.992 2.694 1.679 1.042 2.52 2.513 2.52 4.413 0 3.255-1.714 5.48-5.144 6.678-1.808.625-4.161.938-7.058.938-4.838 0-8.254-1.185-10.248-3.555-1.089-1.301-1.821-3.266-2.193-5.896h-11.481c0 5.988 2.17 10.695 6.513 14.117 4.342 3.424 10.303 5.136 17.881 5.136 7.421 0 13.164-1.738 17.229-5.213 3.739-3.197 5.754-7.149 6.055-11.855v16.204h12.738V71.799h24.257v-9.897h-24.257V48.514h27.989z" fill="#FFF"/></svg>