<svg xmlns="http://www.w3.org/2000/svg" width="172.75" height="182.5" viewBox="-25.75 -3.25 172.75 182.5"><path fill="#EB093C" d="M128.083 33.594l-29-33.121-.379-.379H10.083c-5.522 0-10 4.477-10 10v150c0 5.523 4.478 10 10 10h108c5.521 0 10-4.477 10-10v-126.5z"/><path fill="#FFF" d="M95.875 1.89c-1.874.054-1.843 2.002-1.843 2.002v28.996s-.406 4.526 5.529 4.526h23.856s1.854-.022 2.312-.809c.75-1.292-.307-2.564-.307-2.564L98.054 2.807s-.874-.954-2.179-.917z"/><path fill="#FFF" stroke="#EB093C" stroke-width="5" stroke-miterlimit="10" d="M140.697 119.391a9 9 0 0 1-9 9H-7.848a9 9 0 0 1-9-9V69.938a9 9 0 0 1 9-9h139.545a9 9 0 0 1 9 9v49.453z"/><g fill="#EB093C"><path d="M17.748 70.62H-4.729v49.838H6.23V102.59h11.518c12.424 0 17.24-7.889 17.24-15.984 0-8.098-4.816-15.986-17.24-15.986zm-3.002 23.453H6.23V79.136h8.516c5.096 0 9.632 1.117 9.632 7.469s-4.536 7.468-9.632 7.468zM63.321 70.62H41.822v49.838h21.499c15.217 0 22.615-10.749 22.615-25.198.002-16.542-9.702-24.64-22.615-24.64zm-.768 40.625h-9.771V79.834H60.6c10.888 0 14.38 6.421 14.38 16.473-.001 11.029-6.076 14.938-12.427 14.938zM93.54 120.458h10.957v-20.59h20.872v-8.516h-20.872V79.834h24.082V70.62H93.54z"/></g></svg>