<svg class="svg-store" xmlns="http://www.w3.org/2000/svg"><symbol viewBox="185 10.5 50.625 34.438" id="advanced-search"><title>advanced-search</title><path fill="none" stroke="#EB093C" stroke-width="3" stroke-linecap="round" stroke-miterlimit="10" d="M187.312 38.718h45.954"/><circle fill="#EB093C" cx="210.8" cy="38.718" r="4"/><path fill="none" stroke="#EB093C" stroke-width="3" stroke-linecap="round" stroke-miterlimit="10" d="M187.312 27.709h45.954"/><circle fill="#EB093C" cx="224.8" cy="27.709" r="4"/><path fill="none" stroke="#EB093C" stroke-width="3" stroke-linecap="round" stroke-miterlimit="10" d="M187.312 16.7h45.954"/><circle fill="#EB093C" cx="198.8" cy="16.7" r="4"/></symbol><symbol viewBox="154.833 -9.5 75.155 76.667" id="arrow-box-down"><title>arrow-box-down</title><path fill="#EB093C" d="M220.76-.925h-58v58.001h58V-.925zm-29.308 35.763l-6.63-12.377c-.085-.159-.127-.366-.127-.573s.042-.415.127-.573c.169-.316.444-.316.613 0l6.323 11.805 6.324-11.805c.169-.316.443-.316.614 0 .169.316.169.829 0 1.146l-6.631 12.377c-.169.315-.443.315-.613 0z"/></symbol><symbol viewBox="154.833 -9.5 75.155 76.667" id="arrow-box-right"><title>arrow-box-right</title><path fill="#EB093C" d="M162.759-.925v58h58.001v-58h-58.001zm35.763 29.308l-12.377 6.63c-.159.085-.366.127-.573.127s-.415-.042-.573-.127c-.316-.169-.316-.444 0-.613l11.805-6.323-11.805-6.324c-.316-.169-.316-.443 0-.614.316-.169.829-.169 1.146 0l12.377 6.631c.315.168.315.443 0 .613z"/></symbol><symbol viewBox="181.125 18.75 22.875 17.125" id="arrow-right"><title>arrow-right</title><path fill="#EB093C" d="M186.145 35.013c-.159.085-.366.127-.573.127s-.415-.042-.573-.127c-.316-.169-.316-.444 0-.613l11.805-6.323-11.805-6.324c-.316-.169-.316-.443 0-.614.316-.169.829-.169 1.146 0l12.377 6.631c.315.169.315.443 0 .613l-12.377 6.63z"/></symbol><symbol viewBox="157.5 -7.5 122 63" id="arrow-thin-down"><title>arrow-thin-down</title><path d="M174.37.917l43.71 42.476L261.94.917l2.308 1.383-46.168 44.784L171.908 2.3z"/></symbol><symbol viewBox="0 -24.5 56.5 56.5" id="close-blue"><title>close-blue</title><path d="M30.595 4.577l17.664-17.568a2.126 2.126 0 0 0 0-3.03 2.178 2.178 0 0 0-3.063 0L27.548 1.53 9.736-16.283a2.163 2.163 0 0 0-3.062 0 2.176 2.176 0 0 0 0 3.069l17.8 17.801L6.61 22.352a2.129 2.129 0 0 0 0 3.031 2.179 2.179 0 0 0 3.062 0L27.52 7.633l17.741 17.744a2.16 2.16 0 0 0 3.062 0 2.176 2.176 0 0 0 0-3.069L30.595 4.577z"/></symbol><symbol viewBox="0 -24.5 56.5 56.5" id="close-white"><title>close-white</title><path d="M30.595 4.577l17.664-17.568a2.126 2.126 0 0 0 0-3.03 2.178 2.178 0 0 0-3.063 0L27.548 1.53 9.736-16.283a2.163 2.163 0 0 0-3.062 0 2.176 2.176 0 0 0 0 3.069l17.8 17.801L6.61 22.352a2.129 2.129 0 0 0 0 3.031 2.179 2.179 0 0 0 3.062 0L27.52 7.633l17.741 17.744a2.16 2.16 0 0 0 3.062 0 2.176 2.176 0 0 0 0-3.069L30.595 4.577z"/></symbol><symbol viewBox="0 -24.5 56.5 56.5" id="close"><title>close</title><path d="M30.595 4.577l17.664-17.568a2.126 2.126 0 0 0 0-3.03 2.178 2.178 0 0 0-3.063 0L27.548 1.53 9.736-16.283a2.163 2.163 0 0 0-3.062 0 2.176 2.176 0 0 0 0 3.069l17.8 17.801L6.61 22.352a2.129 2.129 0 0 0 0 3.031 2.179 2.179 0 0 0 3.062 0L27.52 7.633l17.741 17.744a2.16 2.16 0 0 0 3.062 0 2.176 2.176 0 0 0 0-3.069L30.595 4.577z"/></symbol><symbol viewBox="408.115 1417.564 127.493 90.062" id="envelope"><title>envelope</title><path fill="#EB093C" d="M498.693 1454.242v25.408c0 1.408-.502 2.614-1.504 3.615-1.003 1.004-2.208 1.505-3.617 1.505h-47.104c-1.408 0-2.614-.501-3.616-1.505-1.003-1.001-1.504-2.207-1.504-3.615v-25.408a16.943 16.943 0 0 0 3.232 2.785c7.723 5.248 13.024 8.928 15.904 11.039a76.126 76.126 0 0 0 2.96 2.097c.757.501 1.765 1.013 3.024 1.536 1.259.521 2.432.784 3.52.784h.064c1.087 0 2.261-.263 3.52-.784 1.259-.523 2.267-1.035 3.024-1.536.757-.502 1.744-1.2 2.96-2.097 3.626-2.624 8.938-6.304 15.936-11.039a17.656 17.656 0 0 0 3.201-2.785zm0-11.809c0 1.686-.523 3.295-1.568 4.831a15.222 15.222 0 0 1-3.904 3.938c-8.022 5.567-13.013 9.034-14.976 10.4-.214.148-.667.473-1.36.975-.694.502-1.27.906-1.728 1.216s-1.013.656-1.664 1.04c-.651.385-1.264.672-1.84.864s-1.109.288-1.6.288h-.064c-.491 0-1.024-.096-1.6-.288a9.641 9.641 0 0 1-1.84-.864c-.65-.384-1.205-.73-1.664-1.04-.459-.31-1.035-.714-1.728-1.216s-1.147-.826-1.36-.975c-1.941-1.366-4.736-3.312-8.384-5.841s-5.835-4.049-6.56-4.56c-1.323-.896-2.571-2.128-3.744-3.697-1.174-1.566-1.76-3.023-1.76-4.367 0-1.664.443-3.051 1.328-4.16s2.149-1.664 3.792-1.664h47.104c1.387 0 2.587.501 3.6 1.504 1.013 1.001 1.52 2.207 1.52 3.616z"/></symbol><symbol viewBox="0 0 50 50" id="facebook-circle"><title>facebook-circle</title><g fill="#FFF"><path d="M26.82 19.31c0-.989.101-1.519 1.622-1.519h2.034V14h-3.254c-3.91 0-5.286 1.839-5.286 4.932v2.276H19.5v3.791h2.437V36h4.877V24.999h3.254l.432-3.791h-3.686l.006-1.898z"/><path d="M25 0C11.193 0 0 11.193 0 25s11.193 25 25 25 25-11.193 25-25S38.807 0 25 0zm0 47C12.85 47 3 37.15 3 25S12.85 3 25 3s22 9.85 22 22-9.85 22-22 22z"/></g></symbol><symbol viewBox="14.876 12.64 22.057 24.14" id="facebook"><title>facebook</title><path fill="#EB093C" d="M26.82 19.31c0-.989.101-1.519 1.622-1.519h2.034V14h-3.254c-3.91 0-5.286 1.839-5.286 4.932v2.276H19.5v3.791h2.437V36h4.877V24.999h3.254l.432-3.791h-3.686l.006-1.898z"/></symbol><symbol viewBox="-48.833 -46.167 114.667 118.667" id="Icon_OnHold"><title>Icon_OnHold</title><path d="M-1.519-9.352c-2.283 0-4.105 1.82-4.105 4.065v37.673c0 2.213 1.838 4.068 4.105 4.068 2.283 0 4.105-1.819 4.105-4.068V-5.287c0-2.213-1.838-4.065-4.105-4.065zM19.005-9.352c-2.285 0-4.104 1.82-4.104 4.065v37.673c0 2.213 1.836 4.068 4.104 4.068 2.285 0 4.105-1.819 4.105-4.068V-5.287c0-2.213-1.836-4.065-4.105-4.065z"/><g><path d="M8.743-40.449c-29.823 0-54 24.178-54 54 0 29.824 24.177 54 54 54s54-24.175 54-54c0-29.822-24.177-54-54-54zm0 101.224c-26.082 0-47.225-21.144-47.225-47.225s21.143-47.225 47.225-47.225c26.081 0 47.225 21.144 47.225 47.225S34.824 60.775 8.743 60.775z"/></g></symbol><symbol viewBox="0 0 50 50" id="instagram-circle"><title>instagram-circle</title><g fill="#FFF" fill-rule="evenodd"><path fill-rule="nonzero" d="M25 0C11.193 0 0 11.193 0 25s11.193 25 25 25 25-11.193 25-25S38.807 0 25 0zm0 47C12.85 47 3 37.15 3 25S12.85 3 25 3s22 9.85 22 22-9.85 22-22 22z"/><path d="M37.315 32c0 2.972-2.464 5.404-5.475 5.404H18.16c-3.011 0-5.475-2.432-5.475-5.404V19c0-2.972 2.464-5.404 5.475-5.404h13.68c3.011 0 5.475 2.432 5.475 5.404v13zm-5.223-21H17.908C13.558 11 10 14.513 10 18.807v13.386C10 36.487 13.558 40 17.908 40h14.184C36.442 40 40 36.487 40 32.193V18.807C40 14.513 36.442 11 32.092 11z"/><path d="M26 31.339c-2.85 0-5.161-2.166-5.161-4.839 0-2.673 2.31-4.839 5.161-4.839 2.85 0 5.161 2.166 5.161 4.839 0 2.672-2.31 4.839-5.161 4.839M26 19c-4.418 0-8 3.358-8 7.5 0 4.142 3.582 7.5 8 7.5s8-3.358 8-7.5c0-4.142-3.582-7.5-8-7.5m8-1.5a1.5 1.5 0 1 1-3 0 1.5 1.5 0 0 1 3 0"/></g></symbol><symbol viewBox="0 0 30 29" id="instagram"><title>instagram</title><g fill="#E81441" fill-rule="evenodd"><path d="M27.315 21c0 2.972-2.464 5.404-5.475 5.404H8.16c-3.011 0-5.475-2.432-5.475-5.404V8c0-2.972 2.464-5.404 5.475-5.404h13.68c3.011 0 5.475 2.432 5.475 5.404v13zM22.092 0H7.908C3.558 0 0 3.513 0 7.807v13.386C0 25.487 3.558 29 7.908 29h14.184C26.442 29 30 25.487 30 21.193V7.807C30 3.513 26.442 0 22.092 0z"/><path d="M16 20.339c-2.85 0-5.161-2.166-5.161-4.839 0-2.673 2.31-4.839 5.161-4.839 2.85 0 5.161 2.166 5.161 4.839 0 2.672-2.31 4.839-5.161 4.839M16 8c-4.418 0-8 3.358-8 7.5 0 4.142 3.582 7.5 8 7.5s8-3.358 8-7.5c0-4.142-3.582-7.5-8-7.5m8-1.5a1.5 1.5 0 1 1-3 0 1.5 1.5 0 0 1 3 0"/></g></symbol><symbol viewBox="12.456 11.482 33.915 34.239" id="linkedin"><title>linkedin</title><path fill="#EB093C" d="M21.883 43.823V25.524h-5.656v18.299h5.656zm0-24.785c-.034-1.637-1.125-2.884-2.898-2.884-1.773 0-2.932 1.247-2.932 2.884 0 1.602 1.125 2.885 2.864 2.885h.034c1.807 0 2.932-1.283 2.932-2.885zm9.226 24.785V33.397c0-.558.041-1.116.205-1.514.449-1.116 1.47-2.27 3.184-2.27 2.246 0 3.654 1.275 3.654 3.784v10.426h5.693V33.118c0-5.734-3.061-8.402-7.144-8.402-3.349 0-4.817 1.872-5.634 3.146l.041-2.447h-5.684c.082 1.751 0 18.409 0 18.409h5.685z"/></symbol><symbol viewBox="110.14 178.445 372 490" id="location"><title>location</title><path d="M443.568 318.754l-.001.002c-16.826-64.884-75.779-112.797-145.927-112.797-71.725 0-131.746 50.095-146.996 117.204-1.913 6.917-5.093 21.727-4.635 42.579-.842 27.34 8.874 116.853 142.209 270.188 0 0 5.567 5.566 9.422 5.566s9.421-5.566 9.421-5.566c120.94-139.082 140.177-225.653 142.079-260.95 2.477-35.101-5.572-56.226-5.572-56.226zM297.64 445.784c-49.196 0-89.078-39.882-89.078-89.078s39.882-89.078 89.078-89.078c49.196 0 89.078 39.881 89.078 89.078s-39.882 89.078-89.078 89.078z"/></symbol><symbol viewBox="0 0 274 74" id="logo-white"><title>logo-white</title><path fill="#FFF" d="M77.673 21.895v-4.441H60.781v16.363c-.091-1.917-.791-3.404-2.117-4.451-.917-.723-2.294-1.3-4.13-1.731l-4.189-.989c-1.617-.378-2.675-.707-3.172-.987-.457-.249-.779-.573-.965-.974l-.001.002-.003-.009a2.258 2.258 0 0 1-.195-.933c0-.731.25-1.354.77-1.844V21.9l.035-.032.001-.001c.113-.103.239-.201.376-.291.787-.519 1.837-.777 3.156-.777 1.184 0 2.175.2 2.973.599 1.195.605 1.837 1.626 1.925 3.062h4.795c-.087-2.538-1.03-4.474-2.829-5.807s-3.971-2-6.518-2c-3.049 0-5.362.707-6.937 2.121-.968.87-1.637 1.877-2.009 3.021h-.002a6.838 6.838 0 0 0-.2.76c-.583 2.754-2.357 4.625-5.321 4.625-4.747 0-6.529-4.039-6.529-8.044 0-4.206 1.783-8.243 6.529-8.243 2.623 0 4.912 1.817 5.249 4.205h5.115c-.639-5.552-5.082-8.647-10.364-8.647-7.094 0-11.397 5.052-11.781 11.706V7.02h-5.285v14.941c0 3.566-1.211 5.217-4.98 5.217-4.274 0-4.946-2.592-4.946-5.217V7.02H3.946v14.941c0 6.528 3.769 9.658 10.229 9.658 6.428 0 10.265-3.163 10.265-9.658v-1.873c.383 6.481 4.687 11.531 11.781 11.531 2.914 0 5.399-.939 7.232-2.615.113.092.229.181.353.266.95.658 2.696 1.269 5.236 1.829l2.585.567c1.514.324 2.619.697 3.315 1.118.696.432 1.046 1.042 1.046 1.83 0 1.35-.712 2.273-2.134 2.77-.75.26-1.726.39-2.928.39-2.006 0-3.424-.491-4.25-1.475-.453-.54-.756-1.355-.91-2.446h-4.763c0 2.485.9 4.437 2.701 5.855 1.802 1.421 4.274 2.13 7.417 2.13 3.078 0 5.46-.72 7.146-2.161 1.551-1.327 2.387-2.966 2.512-4.918v6.722h5.282v-9.928h10.062v-4.106h-10.06v-5.552h11.61z"/><g fill="#FFF"><path d="M114.068 41.498h-3.572V24.954H90.543v16.544H86.97V7.036h3.573v14.822h19.953V7.036h3.572zM120.971 27.118h15.623c-.199-4.24-2.874-8.477-7.675-8.477-4.801.001-7.437 4.228-7.948 8.477m7.948 15.097c-7.077 0-11.302-4.939-11.302-13.214 0-3.514.945-6.731 2.661-9.062 2.001-2.717 4.99-4.153 8.641-4.153 3.053 0 5.566.999 7.472 2.972 2.409 2.492 3.7 6.524 3.543 11.061l-.005.155h-18.975c.134 6.481 4.083 9.385 7.965 9.385 3.928 0 6.552-2.141 7.59-6.19l.031-.121h3.339l-.046.197c-1.392 6.035-4.961 8.97-10.914 8.97M159.454 28.207c-.562.572-1.715.776-2.44.904-.841.149-1.729.274-2.586.396-4.504.636-8.757 1.236-8.757 5.136 0 3.063 2.75 4.716 5.338 4.716 2.527 0 4.872-.902 6.432-2.478 1.337-1.351 2.034-3.116 2.014-5.105v-3.569zm-8.684 14.008c-5.202 0-8.433-2.828-8.433-7.381 0-6.599 5.849-7.252 12.041-7.944.448-.05.898-.1 1.347-.152 2.383-.275 3.73-.56 3.73-3.188 0-3.349-2-4.908-6.294-4.908-2.354 0-6.322.726-6.438 5.581l-.004.156h-3.338l.008-.168c.27-5.434 3.876-8.425 10.154-8.425 6.135 0 9.246 2.725 9.246 8.099v13.101c0 1.099.541 1.656 1.608 1.656.309 0 .673-.091.896-.18l.221-.088v2.901l-.128.027c-.688.147-1.173.195-1.994.195-2.936 0-3.636-1.551-3.694-4.082-2.059 3.045-4.244 4.8-8.928 4.8M168.538 7.036h3.334v34.462h-3.334zM184.621 41.785c-2.135 0-3.463-.381-4.307-1.233-.861-.872-1.234-2.253-1.21-4.477V19.359h-4.303v-2.855h4.303V9.092h3.334v7.412h5.021v2.855h-5.021v16.479c0 2.031.331 2.96 2.289 3.092a23.54 23.54 0 0 0 2.554-.144l.179-.02v2.922h-.161c-.45 0-.897.024-1.33.048-.438.025-.889.049-1.348.049M211.796 41.498h-3.334V25.94c0-4.979-1.939-7.299-6.103-7.299-4.439 0-7.487 3.338-7.586 8.306v14.551h-3.334V7.036h3.334V20.35c1.28-2.712 4.411-4.563 7.824-4.563 6.361 0 9.198 2.983 9.198 9.676v16.035z"/></g><g fill="#FFF"><path d="M86.977 53.72h6.562c2.607 0 4.976.912 4.976 3.803 0 1.629-1.087 3.129-2.694 3.477v.043c1.999.261 3.281 1.76 3.281 3.781 0 1.478-.521 4.41-5.562 4.41h-6.562V53.72zm1.477 6.801h5.084c2.369 0 3.499-1.173 3.499-2.629 0-1.934-1.195-2.912-3.499-2.912h-5.084v5.541zm0 7.453h5.084c2.195.021 4.085-.717 4.085-3.194 0-1.978-1.5-2.998-4.085-2.998h-5.084v6.192zM101.208 58.021h1.26v2.63h.043c.695-1.804 2.216-2.868 4.237-2.781v1.368c-2.477-.13-4.172 1.695-4.172 4.021v5.975h-1.369V58.021zM107.922 61.455c.13-2.629 1.977-3.759 4.542-3.759 1.977 0 4.128.608 4.128 3.606v5.954c0 .521.261.825.804.825.152 0 .326-.043.435-.087v1.151a3.761 3.761 0 0 1-.891.087c-1.391 0-1.607-.782-1.607-1.955h-.044c-.956 1.456-1.934 2.281-4.085 2.281-2.064 0-3.759-1.021-3.759-3.281 0-3.15 3.063-3.259 6.019-3.606 1.13-.131 1.76-.282 1.76-1.521 0-1.847-1.326-2.303-2.933-2.303-1.695 0-2.955.782-2.999 2.607h-1.37zm7.301 1.651h-.043c-.174.326-.782.435-1.151.5-2.325.412-5.215.391-5.215 2.585 0 1.369 1.217 2.217 2.499 2.217 2.086 0 3.933-1.325 3.911-3.521v-1.781zM119.352 53.72h1.369v2.194h-1.369V53.72zm0 4.301h1.369v11.212h-1.369V58.021zM123.327 58.021h1.369v1.935h.043c.5-1.348 1.999-2.26 3.585-2.26 3.15 0 4.106 1.651 4.106 4.323v7.214h-1.369v-6.996c0-1.934-.63-3.39-2.846-3.39-2.173 0-3.477 1.651-3.52 3.846v6.54h-1.369V58.021zM139.646 53.72h12.298v1.26h-5.41v14.254h-1.478V54.979h-5.41V53.72zM162.221 69.233h-1.26v-2.021h-.043c-.718 1.499-2.195 2.347-3.868 2.347-2.825 0-3.933-1.651-3.933-4.259v-7.279h1.369v7.301c.064 2.021.825 3.086 2.998 3.086 2.347 0 3.368-2.217 3.368-4.498v-5.889h1.368v11.212zM164.807 58.021h1.26v1.891h.065c.718-1.347 1.891-2.216 3.673-2.216 1.477 0 2.803.717 3.215 2.194.674-1.478 2.086-2.194 3.564-2.194 2.455 0 3.715 1.281 3.715 3.933v7.604h-1.369v-7.539c0-1.848-.695-2.847-2.65-2.847-2.368 0-3.042 1.955-3.042 4.041v6.345h-1.369v-7.604c.022-1.521-.608-2.781-2.347-2.781-2.368 0-3.324 1.781-3.346 4.128v6.258h-1.369V58.021zM192.945 63.628c0 3.216-1.869 5.932-5.303 5.932-3.433 0-5.301-2.716-5.301-5.932s1.868-5.932 5.301-5.932c3.434 0 5.303 2.716 5.303 5.932zm-9.235 0c0 2.39 1.304 4.78 3.933 4.78 2.63 0 3.934-2.391 3.934-4.78 0-2.391-1.304-4.78-3.934-4.78-2.629 0-3.933 2.389-3.933 4.78zM194.987 58.021h1.261v2.63h.043c.695-1.804 2.217-2.868 4.237-2.781v1.368c-2.478-.13-4.172 1.695-4.172 4.021v5.975h-1.369V58.021zM219.475 58.413c-.521-2.391-2.499-3.759-4.759-3.759-4.106 0-5.845 3.433-5.845 6.822s1.738 6.823 5.845 6.823c2.868 0 4.693-2.217 4.976-4.977h1.478c-.413 3.803-2.825 6.236-6.453 6.236-4.89 0-7.323-3.846-7.323-8.083s2.434-8.083 7.323-8.083c2.933 0 5.845 1.76 6.235 5.02h-1.477zM223.972 63.997c.022 1.999 1.065 4.411 3.694 4.411 1.999 0 3.085-1.174 3.52-2.868h1.369c-.587 2.542-2.064 4.02-4.889 4.02-3.563 0-5.062-2.737-5.062-5.932 0-2.955 1.499-5.932 5.062-5.932 3.606 0 5.041 3.15 4.932 6.301h-8.626zm7.257-1.151c-.065-2.064-1.348-3.998-3.563-3.998-2.238 0-3.477 1.955-3.694 3.998h7.257zM234.424 58.021h1.369v1.935h.043c.5-1.348 1.999-2.26 3.585-2.26 3.151 0 4.106 1.651 4.106 4.323v7.214h-1.368v-6.996c0-1.934-.63-3.39-2.847-3.39-2.173 0-3.477 1.651-3.52 3.846v6.54h-1.369V58.021zM248.286 58.021h2.281v1.152h-2.281v7.562c0 .891.13 1.412 1.108 1.478.391 0 .782-.022 1.173-.065v1.173c-.413 0-.804.044-1.217.044-1.825 0-2.455-.608-2.434-2.521v-7.67h-1.955v-1.152h1.955v-3.367h1.369v3.366zM253.348 63.997c.021 1.999 1.064 4.411 3.694 4.411 1.999 0 3.085-1.174 3.52-2.868h1.369c-.587 2.542-2.064 4.02-4.889 4.02-3.563 0-5.063-2.737-5.063-5.932 0-2.955 1.5-5.932 5.063-5.932 3.606 0 5.041 3.15 4.933 6.301h-8.627zm7.257-1.151c-.065-2.064-1.348-3.998-3.563-3.998-2.238 0-3.477 1.955-3.694 3.998h7.257zM263.821 58.021h1.261v2.63h.043c.695-1.804 2.217-2.868 4.237-2.781v1.368c-2.478-.13-4.172 1.695-4.172 4.021v5.975h-1.369V58.021z"/></g></symbol><symbol viewBox="201.938 11.438 24 24.938" id="minus"><title>minus</title><path fill="#052049" d="M223.6 24.96v-1.92h-19.2v1.92z"/></symbol><symbol viewBox="0 0 341.333 341.333" id="mobile-menu"><title>mobile-menu</title><path d="M0 277.333h341.333V320H0zM0 149.333h341.333V192H0zM0 21.333h341.333V64H0z"/></symbol><symbol viewBox="-25.75 -3.25 172.75 182.5" id="pdf"><title>pdf</title><path fill="#EB093C" d="M128.083 33.594l-29-33.121-.379-.379H10.083c-5.522 0-10 4.477-10 10v150c0 5.523 4.478 10 10 10h108c5.521 0 10-4.477 10-10v-126.5z"/><path fill="#FFF" d="M95.875 1.89c-1.874.054-1.843 2.002-1.843 2.002v28.996s-.406 4.526 5.529 4.526h23.856s1.854-.022 2.312-.809c.75-1.292-.307-2.564-.307-2.564L98.054 2.807s-.874-.954-2.179-.917z"/><path fill="#FFF" stroke="#EB093C" stroke-width="5" stroke-miterlimit="10" d="M140.697 119.391a9 9 0 0 1-9 9H-7.848a9 9 0 0 1-9-9V69.938a9 9 0 0 1 9-9h139.545a9 9 0 0 1 9 9v49.453z"/><g fill="#EB093C"><path d="M17.748 70.62H-4.729v49.838H6.23V102.59h11.518c12.424 0 17.24-7.889 17.24-15.984 0-8.098-4.816-15.986-17.24-15.986zm-3.002 23.453H6.23V79.136h8.516c5.096 0 9.632 1.117 9.632 7.469s-4.536 7.468-9.632 7.468zM63.321 70.62H41.822v49.838h21.499c15.217 0 22.615-10.749 22.615-25.198.002-16.542-9.702-24.64-22.615-24.64zm-.768 40.625h-9.771V79.834H60.6c10.888 0 14.38 6.421 14.38 16.473-.001 11.029-6.076 14.938-12.427 14.938zM93.54 120.458h10.957v-20.59h20.872v-8.516h-20.872V79.834h24.082V70.62H93.54z"/></g></symbol><symbol viewBox="201.938 11.438 24 24.938" id="plus"><title>plus</title><path fill="#052049" d="M213.04 33.6h1.92v-8.64h8.64v-1.92h-8.64V14.4h-1.92v8.64h-8.64v1.92h8.64z"/></symbol><symbol viewBox="0 -10.47 31.634 28.47" id="print"><title>print</title><path fill="#EB093C" d="M26.917-2.583H4.75C2.058-2.583 0-.525 0 2.167v9.5h6.333V18h19v-6.333h6.334v-9.5c0-2.692-2.059-4.75-4.75-4.75zm-4.75 17.416H9.5V6.917h12.667v7.916zm4.75-11.083c-.95 0-1.584-.633-1.584-1.583S25.967.584 26.917.584c.949 0 1.583.633 1.583 1.583s-.634 1.583-1.583 1.583zM25.333-10.5h-19v6.333h19V-10.5z"/></symbol><symbol viewBox="0 0 59.414 59.414" id="right-arrow-blue"><title>right-arrow-blue</title><path d="M15.561 0l-1.415 1.414 28.293 28.293L14.146 58l1.415 1.414 29.707-29.707z"/></symbol><symbol viewBox="0 0 59.414 59.414" id="right-arrow"><title>right-arrow</title><path fill="#FFF" d="M15.561 0l-1.415 1.414 28.293 28.293L14.146 58l1.415 1.414 29.707-29.707z"/></symbol><symbol viewBox="185 0 53.25 48" id="search-red"><title>search-red</title><circle fill="none" stroke="#EB093C" stroke-width="2" stroke-miterlimit="10" cx="210.8" cy="20.8" r="14.4"/><path fill="none" stroke="#EB093C" stroke-width="2" stroke-linecap="round" stroke-miterlimit="10" d="M231.6 41.6l-10.5-10.5"/></symbol><symbol viewBox="185 0 53.25 48" id="search-white"><title>search-white</title><circle fill="none" stroke="#FFF" stroke-width="2" stroke-miterlimit="10" cx="210.8" cy="20.8" r="14.4"/><path fill="none" stroke="#FFF" stroke-width="2" stroke-linecap="round" stroke-miterlimit="10" d="M231.6 41.6l-10.5-10.5"/></symbol><symbol viewBox="185 0 53.25 48" id="search"><title>search</title><circle fill="none" stroke="#007CBE" stroke-width="2" stroke-miterlimit="10" cx="210.8" cy="20.8" r="14.4"/><path fill="none" stroke="#007CBE" stroke-width="2" stroke-linecap="round" stroke-miterlimit="10" d="M231.6 41.6l-10.5-10.5"/></symbol><symbol viewBox="0 0 48.002 48.003" id="social-sharing"><title>social-sharing</title><path fill="#EB093C" d="M0 0v48.003h48.002V0H0zm32.001 26.002H26v6.001h-3.997v-6.001H16v-3.997h6.002v-6.003H26v6.003h6.001v3.997z"/></symbol><symbol viewBox="0 0 100 100" id="teddy-white"><title>teddy-white</title><path d="M12.016 28.867c0-5.187 4.22-9.406 9.406-9.406 3.28 0 6.17 1.691 7.854 4.244a39.512 39.512 0 0 1 6.255-3.211c-2.863-4.813-8.102-8.049-14.109-8.049C12.352 12.445 5 19.797 5 28.867c0 6.084 3.317 11.383 8.233 14.22a40.037 40.037 0 0 1 3.135-6.301c-2.612-1.673-4.352-4.594-4.352-7.919z"/><path d="M26.437 25.672a5.947 5.947 0 0 0-5.015-2.759 5.96 5.96 0 0 0-5.953 5.953 5.947 5.947 0 0 0 2.828 5.057 40.548 40.548 0 0 1 8.14-8.251zM78.578 12.445c-6.007 0-11.245 3.236-14.109 8.049a39.466 39.466 0 0 1 6.254 3.212c1.684-2.553 4.574-4.244 7.854-4.244 5.187 0 9.406 4.219 9.406 9.406 0 3.327-1.741 6.248-4.354 7.921a40.032 40.032 0 0 1 3.134 6.301C91.682 40.252 95 34.952 95 28.867c0-9.07-7.352-16.422-16.422-16.422z"/><path d="M84.531 28.867a5.96 5.96 0 0 0-5.953-5.953 5.946 5.946 0 0 0-5.015 2.76 40.467 40.467 0 0 1 8.138 8.252 5.95 5.95 0 0 0 2.83-5.059z"/><path d="M50 21.123c-18.543-.001-34.319 14.654-35.917 33.363-.77 7.995 1.775 15.654 7.162 21.585C27.875 83.37 38.356 87.556 50 87.555c11.643 0 22.124-4.185 28.754-11.484 5.388-5.931 7.933-13.59 7.165-21.567C84.318 35.777 68.542 21.122 50 21.123zm0 59.457c-8.257 0-14.975-6.718-14.975-14.975S41.743 50.631 50 50.631s14.975 6.718 14.975 14.975S58.257 80.58 50 80.58zM30.598 47.203a2.7 2.7 0 1 1 5.401 0 2.7 2.7 0 0 1-5.401 0zm36.103 2.701a2.7 2.7 0 1 1 0-5.401 2.7 2.7 0 0 1 0 5.401z"/><path d="M50 54.053c-3.406 0-6.177 2.771-6.177 6.177s2.771 6.177 6.177 6.177 6.177-2.771 6.177-6.177-2.771-6.177-6.177-6.177z"/></symbol><symbol viewBox="0 0 100 100" id="teddy"><title>teddy</title><path d="M12.016 28.867c0-5.187 4.22-9.406 9.406-9.406 3.28 0 6.17 1.691 7.854 4.244a39.512 39.512 0 0 1 6.255-3.211c-2.863-4.813-8.102-8.049-14.109-8.049C12.352 12.445 5 19.797 5 28.867c0 6.084 3.317 11.383 8.233 14.22a40.037 40.037 0 0 1 3.135-6.301c-2.612-1.673-4.352-4.594-4.352-7.919z"/><path d="M26.437 25.672a5.947 5.947 0 0 0-5.015-2.759 5.96 5.96 0 0 0-5.953 5.953 5.947 5.947 0 0 0 2.828 5.057 40.548 40.548 0 0 1 8.14-8.251zM78.578 12.445c-6.007 0-11.245 3.236-14.109 8.049a39.466 39.466 0 0 1 6.254 3.212c1.684-2.553 4.574-4.244 7.854-4.244 5.187 0 9.406 4.219 9.406 9.406 0 3.327-1.741 6.248-4.354 7.921a40.032 40.032 0 0 1 3.134 6.301C91.682 40.252 95 34.952 95 28.867c0-9.07-7.352-16.422-16.422-16.422z"/><path d="M84.531 28.867a5.96 5.96 0 0 0-5.953-5.953 5.946 5.946 0 0 0-5.015 2.76 40.467 40.467 0 0 1 8.138 8.252 5.95 5.95 0 0 0 2.83-5.059z"/><path d="M50 21.123c-18.543-.001-34.319 14.654-35.917 33.363-.77 7.995 1.775 15.654 7.162 21.585C27.875 83.37 38.356 87.556 50 87.555c11.643 0 22.124-4.185 28.754-11.484 5.388-5.931 7.933-13.59 7.165-21.567C84.318 35.777 68.542 21.122 50 21.123zm0 59.457c-8.257 0-14.975-6.718-14.975-14.975S41.743 50.631 50 50.631s14.975 6.718 14.975 14.975S58.257 80.58 50 80.58zM30.598 47.203a2.7 2.7 0 1 1 5.401 0 2.7 2.7 0 0 1-5.401 0zm36.103 2.701a2.7 2.7 0 1 1 0-5.401 2.7 2.7 0 0 1 0 5.401z"/><path d="M50 54.053c-3.406 0-6.177 2.771-6.177 6.177s2.771 6.177 6.177 6.177 6.177-2.771 6.177-6.177-2.771-6.177-6.177-6.177z"/></symbol><symbol viewBox="0 0 50 50" id="twitter-circle"><title>twitter-circle</title><g fill="#FFF"><path d="M25 0C11.193 0 0 11.193 0 25s11.193 25 25 25 25-11.193 25-25S38.807 0 25 0zm0 47C12.85 47 3 37.15 3 25S12.85 3 25 3s22 9.85 22 22-9.85 22-22 22z"/><path d="M35.254 18.022c-1.352.503-1.543.436-.875-.319.492-.537 1.081-1.509 1.081-1.794 0-.05-.238.034-.509.185-.286.167-.922.419-1.398.57l-.859.285-.778-.553c-.429-.302-1.033-.637-1.351-.738-.812-.235-2.051-.202-2.782.067a4.806 4.806 0 0 0-3.1 4.83l.048.822-.795-.101c-2.893-.386-5.42-1.694-7.566-3.891l-1.049-1.09-.27.805c-.572 1.794-.207 3.689.985 4.964.636.705.493.805-.604.386-.381-.134-.715-.234-.747-.184-.111.117.27 1.644.572 2.247.413.839 1.256 1.661 2.178 2.147l.779.386-.922.017c-.89 0-.922.017-.827.369.318 1.09 1.574 2.247 2.973 2.751l.985.352-.858.537a8.656 8.656 0 0 1-4.26 1.24c-.717.016-1.305.083-1.305.133 0 .168 1.939 1.107 3.068 1.477 3.386 1.09 7.408.619 10.428-1.242 2.146-1.324 4.292-3.957 5.293-6.507.541-1.358 1.081-3.841 1.081-5.032 0-.771.048-.872.938-1.794.523-.537 1.018-1.124 1.112-1.292.16-.318.144-.318-.666-.033z"/></g></symbol><symbol viewBox="12.917 12.583 23.583 23.25" id="twitter"><title>twitter</title><path fill="#EB093C" d="M35.254 18.022c-1.352.503-1.543.436-.875-.319.492-.537 1.081-1.509 1.081-1.794 0-.05-.238.034-.509.185-.286.167-.922.419-1.398.57l-.859.285-.778-.553c-.429-.302-1.033-.637-1.351-.738-.812-.235-2.051-.202-2.782.067a4.806 4.806 0 0 0-3.1 4.83l.048.822-.795-.101c-2.893-.386-5.42-1.694-7.566-3.891l-1.049-1.09-.27.805c-.572 1.794-.207 3.689.985 4.964.636.705.493.805-.604.386-.381-.134-.715-.234-.747-.184-.111.117.27 1.644.572 2.247.413.839 1.256 1.661 2.178 2.147l.779.386-.922.017c-.89 0-.922.017-.827.369.318 1.09 1.574 2.247 2.973 2.751l.985.352-.858.537a8.656 8.656 0 0 1-4.26 1.24c-.717.016-1.305.083-1.305.133 0 .168 1.939 1.107 3.068 1.477 3.386 1.09 7.408.619 10.428-1.242 2.146-1.324 4.292-3.957 5.293-6.507.541-1.358 1.081-3.841 1.081-5.032 0-.771.048-.872.938-1.794.523-.537 1.018-1.124 1.112-1.292.16-.318.144-.318-.666-.033z"/></symbol></svg>