<svg fill="#FFF" xmlns="http://www.w3.org/2000/svg" viewBox="0 0 100 100" xml:space="preserve"><path d="M12.016 28.867c0-5.187 4.22-9.406 9.406-9.406 3.28 0 6.17 1.691 7.854 4.244a39.512 39.512 0 0 1 6.255-3.211c-2.863-4.813-8.102-8.049-14.109-8.049C12.352 12.445 5 19.797 5 28.867c0 6.084 3.317 11.383 8.233 14.22a40.037 40.037 0 0 1 3.135-6.301c-2.612-1.673-4.352-4.594-4.352-7.919z"/><path d="M26.437 25.672a5.947 5.947 0 0 0-5.015-2.759 5.96 5.96 0 0 0-5.953 5.953 5.947 5.947 0 0 0 2.828 5.057 40.548 40.548 0 0 1 8.14-8.251zM78.578 12.445c-6.007 0-11.245 3.236-14.109 8.049a39.466 39.466 0 0 1 6.254 3.212c1.684-2.553 4.574-4.244 7.854-4.244 5.187 0 9.406 4.219 9.406 9.406 0 3.327-1.741 6.248-4.354 7.921a40.032 40.032 0 0 1 3.134 6.301C91.682 40.252 95 34.952 95 28.867c0-9.07-7.352-16.422-16.422-16.422z"/><path d="M84.531 28.867a5.96 5.96 0 0 0-5.953-5.953 5.946 5.946 0 0 0-5.015 2.76 40.467 40.467 0 0 1 8.138 8.252 5.95 5.95 0 0 0 2.83-5.059z"/><path d="M50 21.123c-18.543-.001-34.319 14.654-35.917 33.363-.77 7.995 1.775 15.654 7.162 21.585C27.875 83.37 38.356 87.556 50 87.555c11.643 0 22.124-4.185 28.754-11.484 5.388-5.931 7.933-13.59 7.165-21.567C84.318 35.777 68.542 21.122 50 21.123zm0 59.457c-8.257 0-14.975-6.718-14.975-14.975S41.743 50.631 50 50.631s14.975 6.718 14.975 14.975S58.257 80.58 50 80.58zM30.598 47.203a2.7 2.7 0 1 1 5.401 0 2.7 2.7 0 0 1-5.401 0zm36.103 2.701a2.7 2.7 0 1 1 0-5.401 2.7 2.7 0 0 1 0 5.401z"/><path d="M50 54.053c-3.406 0-6.177 2.771-6.177 6.177s2.771 6.177 6.177 6.177 6.177-2.771 6.177-6.177-2.771-6.177-6.177-6.177z"/></svg>