<svg xmlns="http://www.w3.org/2000/svg" width="23.583" height="23.25" viewBox="12.917 12.583 23.583 23.25"><path fill="#EB093C" d="M35.254 18.022c-1.352.503-1.543.436-.875-.319.492-.537 1.081-1.509 1.081-1.794 0-.05-.238.034-.509.185-.286.167-.922.419-1.398.57l-.859.285-.778-.553c-.429-.302-1.033-.637-1.351-.738-.812-.235-2.051-.202-2.782.067a4.806 4.806 0 0 0-3.1 4.83l.048.822-.795-.101c-2.893-.386-5.42-1.694-7.566-3.891l-1.049-1.09-.27.805c-.572 1.794-.207 3.689.985 4.964.636.705.493.805-.604.386-.381-.134-.715-.234-.747-.184-.111.117.27 1.644.572 2.247.413.839 1.256 1.661 2.178 2.147l.779.386-.922.017c-.89 0-.922.017-.827.369.318 1.09 1.574 2.247 2.973 2.751l.985.352-.858.537a8.656 8.656 0 0 1-4.26 1.24c-.717.016-1.305.083-1.305.133 0 .168 1.939 1.107 3.068 1.477 3.386 1.09 7.408.619 10.428-1.242 2.146-1.324 4.292-3.957 5.293-6.507.541-1.358 1.081-3.841 1.081-5.032 0-.771.048-.872.938-1.794.523-.537 1.018-1.124 1.112-1.292.16-.318.144-.318-.666-.033z"/></svg>