<svg xmlns="http://www.w3.org/2000/svg" width="52" height="52"><g data-name="Ellipse 368" fill="#fff" stroke="#fff" stroke-width="3"><circle cx="26" cy="26" r="26" stroke="none"/><circle cx="26" cy="26" r="24.5" fill="none"/></g><g data-name="104482_youtube_icon (2)" fill="#052049"><path data-name="Path 592" d="M34.957 25.907H18.736a4.67 4.67 0 0 0-4.669 4.67v3.753a4.67 4.67 0 0 0 4.669 4.667h16.221a4.67 4.67 0 0 0 4.669-4.67v-3.75a4.671 4.671 0 0 0-4.669-4.67Zm-12.813 2.921h-1.508v7.494h-1.457v-7.494h-1.507v-1.274h4.472v1.275Zm4.26 7.494h-1.292v-.709a2.765 2.765 0 0 1-.746.6 1.558 1.558 0 0 1-.751.206.8.8 0 0 1-.676-.289 1.4 1.4 0 0 1-.227-.867v-5.41h1.292v4.963a.553.553 0 0 0 .08.331.317.317 0 0 0 .266.1.735.735 0 0 0 .36-.135 1.746 1.746 0 0 0 .4-.348v-4.912h1.294Zm4.692-1.336a1.612 1.612 0 0 1-.3 1.053 1.074 1.074 0 0 1-.879.365 1.54 1.54 0 0 1-.677-.141 1.662 1.662 0 0 1-.553-.438v.5h-1.312v-8.771h1.308v2.824a2.017 2.017 0 0 1 .553-.449 1.269 1.269 0 0 1 .6-.154 1.117 1.117 0 0 1 .936.412 1.927 1.927 0 0 1 .325 1.209v3.59Zm4.483-1.743h-2.473v1.219a1.41 1.41 0 0 0 .126.708.482.482 0 0 0 .439.2.535.535 0 0 0 .45-.167 1.4 1.4 0 0 0 .123-.741v-.294h1.33v.329a2.074 2.074 0 0 1-.488 1.5 1.927 1.927 0 0 1-1.45.5 1.782 1.782 0 0 1-1.369-.532 2.065 2.065 0 0 1-.5-1.467v-2.901a1.825 1.825 0 0 1 .551-1.372 1.95 1.95 0 0 1 1.42-.528 1.814 1.814 0 0 1 1.365.49 1.944 1.944 0 0 1 .476 1.41Z"/><path data-name="Path 593" d="M33.683 30.825a.513.513 0 0 0-.443.179.942.942 0 0 0-.134.579v.654h1.142v-.658a.946.946 0 0 0-.137-.579.5.5 0 0 0-.428-.175Z"/><path data-name="Path 594" d="M29.224 30.799a.637.637 0 0 0-.274.063.926.926 0 0 0-.267.2v4.03a1.1 1.1 0 0 0 .306.23.76.76 0 0 0 .313.069.42.42 0 0 0 .349-.139.71.71 0 0 0 .111-.445v-3.339a.773.773 0 0 0-.135-.5.5.5 0 0 0-.403-.169Z"/><path data-name="Path 595" d="M20.86 23.66h1.635v-4.007L24.406 14H22.74l-1.014 3.861h-.1L20.558 14h-1.65l1.952 5.833Z"/><path data-name="Path 596" d="M26.626 23.84a2.218 2.218 0 0 0 1.559-.521 1.857 1.857 0 0 0 .564-1.434v-3.681a1.715 1.715 0 0 0-.575-1.334 2.146 2.146 0 0 0-1.482-.516 2.39 2.39 0 0 0-1.581.49 1.629 1.629 0 0 0-.587 1.319v3.694a1.887 1.887 0 0 0 .573 1.445 2.148 2.148 0 0 0 1.529.538Zm-.6-5.731a.485.485 0 0 1 .165-.378.645.645 0 0 1 .435-.142.72.72 0 0 1 .467.142.467.467 0 0 1 .177.378v3.883a.585.585 0 0 1-.175.45.656.656 0 0 1-.469.163.584.584 0 0 1-.445-.162.626.626 0 0 1-.155-.452v-3.882Z"/><path data-name="Path 597" d="M30.947 23.765a1.831 1.831 0 0 0 .844-.228 3.086 3.086 0 0 0 .838-.665v.789h1.455v-7.126h-1.455v5.409a2.014 2.014 0 0 1-.448.383.844.844 0 0 1-.407.15.35.35 0 0 1-.3-.115.582.582 0 0 1-.094-.364v-5.463h-1.449v5.956a1.5 1.5 0 0 0 .254.953.917.917 0 0 0 .762.321Z"/></g></svg>